<svg width="180" height="50" viewBox="0 0 180 50" fill="none" xmlns="http://www.w3.org/2000/svg">
<rect x="1" y="1" width="178" height="48" rx="24" stroke="#1F1F1F" stroke-opacity="0.6" stroke-width="2"/>
<path d="M34.9484 31.2C35.1084 31.504 35.1884 31.776 35.1884 32.016C35.2044 32.24 35.1404 32.44 34.9964 32.616C34.8524 32.776 34.6124 32.944 34.2764 33.12C33.7644 33.36 33.3644 33.424 33.0764 33.312C32.8044 33.2 32.5484 32.888 32.3084 32.376L26.9564 21.072L21.6284 32.376C21.3884 32.872 21.1244 33.168 20.8364 33.264C20.5484 33.376 20.1484 33.32 19.6364 33.096C19.3164 32.936 19.0764 32.768 18.9164 32.592C18.7724 32.416 18.7084 32.208 18.7244 31.968C18.7564 31.712 18.8604 31.408 19.0364 31.056L25.6364 17.304C25.7644 17.048 25.9484 16.848 26.1884 16.704C26.4444 16.544 26.7084 16.464 26.9804 16.464C27.1724 16.464 27.3484 16.496 27.5084 16.56C27.6684 16.624 27.8124 16.72 27.9404 16.848C28.0844 16.976 28.2044 17.136 28.3004 17.328L34.9484 31.2ZM22.6844 28.872L23.8364 26.4H30.1004L31.2524 28.872H22.6844ZM40.8047 33.216C40.0688 33.216 39.3728 33.064 38.7168 32.76C38.0608 32.456 37.4848 32.04 36.9888 31.512C36.4928 30.968 36.1008 30.336 35.8128 29.616C35.5248 28.88 35.3808 28.096 35.3808 27.264C35.3808 26.464 35.5248 25.712 35.8128 25.008C36.1008 24.288 36.4928 23.664 36.9888 23.136C37.5008 22.592 38.0848 22.168 38.7408 21.864C39.3968 21.56 40.0848 21.408 40.8047 21.408C41.5728 21.408 42.2608 21.56 42.8688 21.864C43.4768 22.168 43.9888 22.592 44.4048 23.136C44.8368 23.664 45.1648 24.288 45.3888 25.008C45.6128 25.712 45.7328 26.472 45.7488 27.288C45.7488 28.104 45.6368 28.872 45.4128 29.592C45.2048 30.296 44.8848 30.92 44.4528 31.464C44.0368 32.008 43.5168 32.44 42.8928 32.76C42.2848 33.064 41.5888 33.216 40.8047 33.216ZM41.1888 30.408C41.7488 30.408 42.2448 30.28 42.6768 30.024C43.1248 29.752 43.4768 29.384 43.7328 28.92C44.0048 28.456 44.1408 27.928 44.1408 27.336C44.1408 26.728 44.0048 26.192 43.7328 25.728C43.4768 25.264 43.1248 24.896 42.6768 24.624C42.2448 24.352 41.7488 24.216 41.1888 24.216C40.6288 24.216 40.1248 24.352 39.6768 24.624C39.2288 24.88 38.8688 25.248 38.5968 25.728C38.3408 26.192 38.2128 26.728 38.2128 27.336C38.2128 27.928 38.3408 28.456 38.5968 28.92C38.8688 29.384 39.2288 29.752 39.6768 30.024C40.1408 30.28 40.6448 30.408 41.1888 30.408ZM45.6288 33.216C45.1808 33.216 44.8528 33.144 44.6448 33C44.4368 32.84 44.3008 32.592 44.2368 32.256V17.472C44.2368 17.2 44.2528 16.96 44.2848 16.752C44.3328 16.528 44.4528 16.352 44.6448 16.224C44.8528 16.08 45.1728 16.008 45.6048 16.008C46.0688 16.008 46.3968 16.072 46.5887 16.2C46.7808 16.328 46.9008 16.504 46.9488 16.728C47.0128 16.936 47.0448 17.176 47.0448 17.448V31.752C47.0448 32.024 47.0208 32.272 46.9728 32.496C46.9248 32.72 46.7968 32.896 46.5887 33.024C46.3968 33.152 46.0768 33.216 45.6288 33.216ZM54.6094 33.216C53.8734 33.216 53.1774 33.064 52.5214 32.76C51.8654 32.456 51.2894 32.04 50.7934 31.512C50.2974 30.968 49.9054 30.336 49.6174 29.616C49.3294 28.88 49.1854 28.096 49.1854 27.264C49.1854 26.464 49.3294 25.712 49.6174 25.008C49.9054 24.288 50.2974 23.664 50.7934 23.136C51.3054 22.592 51.8894 22.168 52.5454 21.864C53.2014 21.56 53.8894 21.408 54.6094 21.408C55.3774 21.408 56.0654 21.56 56.6734 21.864C57.2814 22.168 57.7934 22.592 58.2094 23.136C58.6414 23.664 58.9694 24.288 59.1934 25.008C59.4174 25.712 59.5374 26.472 59.5534 27.288C59.5534 28.104 59.4414 28.872 59.2174 29.592C59.0094 30.296 58.6894 30.92 58.2574 31.464C57.8414 32.008 57.3214 32.44 56.6974 32.76C56.0894 33.064 55.3934 33.216 54.6094 33.216ZM54.9934 30.408C55.5534 30.408 56.0494 30.28 56.4814 30.024C56.9294 29.752 57.2814 29.384 57.5374 28.92C57.8094 28.456 57.9454 27.928 57.9454 27.336C57.9454 26.728 57.8094 26.192 57.5374 25.728C57.2814 25.264 56.9294 24.896 56.4814 24.624C56.0494 24.352 55.5534 24.216 54.9934 24.216C54.4334 24.216 53.9294 24.352 53.4814 24.624C53.0334 24.88 52.6734 25.248 52.4014 25.728C52.1454 26.192 52.0174 26.728 52.0174 27.336C52.0174 27.928 52.1454 28.456 52.4014 28.92C52.6734 29.384 53.0334 29.752 53.4814 30.024C53.9454 30.28 54.4494 30.408 54.9934 30.408ZM59.4334 33.216C58.9854 33.216 58.6574 33.144 58.4494 33C58.2414 32.84 58.1054 32.592 58.0414 32.256V17.472C58.0414 17.2 58.0574 16.96 58.0894 16.752C58.1374 16.528 58.2574 16.352 58.4494 16.224C58.6574 16.08 58.9774 16.008 59.4094 16.008C59.8734 16.008 60.2014 16.072 60.3934 16.2C60.5854 16.328 60.7054 16.504 60.7534 16.728C60.8174 16.936 60.8494 17.176 60.8494 17.448V31.752C60.8494 32.024 60.8254 32.272 60.7774 32.496C60.7294 32.72 60.6014 32.896 60.3934 33.024C60.2014 33.152 59.8814 33.216 59.4334 33.216ZM73.3833 33.384C72.9673 33.384 72.5273 33.336 72.0633 33.24C71.5993 33.16 71.1513 33.04 70.7193 32.88C70.2873 32.704 69.9113 32.504 69.5913 32.28C69.2873 32.04 69.0953 31.776 69.0153 31.488C68.9513 31.328 68.9273 31.176 68.9433 31.032C68.9593 30.872 69.0073 30.712 69.0873 30.552C69.1673 30.376 69.2873 30.2 69.4473 30.024C69.5913 29.848 69.7353 29.752 69.8793 29.736C70.0393 29.704 70.2393 29.752 70.4793 29.88C70.6873 29.96 70.9113 30.064 71.1513 30.192C71.4073 30.32 71.6633 30.448 71.9193 30.576C72.1913 30.704 72.4633 30.808 72.7353 30.888C73.0233 30.968 73.3033 31.008 73.5753 31.008C74.1673 31.008 74.6393 30.912 74.9913 30.72C75.3433 30.512 75.5193 30.224 75.5193 29.856C75.5193 29.648 75.4633 29.464 75.3513 29.304C75.2393 29.144 75.0873 29.016 74.8953 28.92C74.7193 28.808 74.5033 28.712 74.2473 28.632C74.0073 28.536 73.7433 28.456 73.4553 28.392C73.1833 28.312 72.8953 28.224 72.5913 28.128C72.1913 28.016 71.7913 27.88 71.3913 27.72C70.9913 27.56 70.6313 27.352 70.3113 27.096C70.0073 26.84 69.7593 26.52 69.5673 26.136C69.3753 25.752 69.2793 25.272 69.2793 24.696C69.2793 23.976 69.4473 23.368 69.7833 22.872C70.1353 22.36 70.6393 21.968 71.2953 21.696C71.9513 21.424 72.7433 21.288 73.6713 21.288C73.9913 21.288 74.2953 21.312 74.5833 21.36C74.8873 21.408 75.1753 21.48 75.4473 21.576C75.7353 21.656 76.0073 21.76 76.2633 21.888C76.5353 22.016 76.7913 22.16 77.0313 22.32C77.4313 22.544 77.6393 22.808 77.6553 23.112C77.6713 23.4 77.5593 23.712 77.3193 24.048C77.1433 24.272 76.9673 24.432 76.7913 24.528C76.6153 24.608 76.4313 24.608 76.2393 24.528C75.9833 24.4 75.7033 24.264 75.3993 24.12C75.1113 23.96 74.8073 23.824 74.4873 23.712C74.1833 23.6 73.8633 23.544 73.5273 23.544C73.2073 23.544 72.9193 23.592 72.6633 23.688C72.4073 23.784 72.2153 23.92 72.0873 24.096C71.9593 24.272 71.8953 24.48 71.8953 24.72C71.8953 24.944 71.9593 25.128 72.0873 25.272C72.2153 25.416 72.3833 25.536 72.5913 25.632C72.7993 25.728 73.0473 25.816 73.3353 25.896C73.6233 25.96 73.9273 26.024 74.2473 26.088C74.6953 26.184 75.1513 26.304 75.6153 26.448C76.0793 26.592 76.5033 26.792 76.8873 27.048C77.2873 27.304 77.6073 27.648 77.8473 28.08C78.0873 28.496 78.2073 29.04 78.2073 29.712C78.2073 30.88 77.7753 31.784 76.9113 32.424C76.0633 33.064 74.8873 33.384 73.3833 33.384ZM86.0069 33.288C85.2389 33.288 84.4869 33.16 83.7509 32.904C83.0309 32.632 82.3749 32.24 81.7829 31.728C81.2069 31.216 80.7429 30.592 80.3909 29.856C80.0549 29.104 79.8869 28.256 79.8869 27.312C79.8869 26.368 80.0549 25.528 80.3909 24.792C80.7429 24.056 81.2069 23.432 81.7829 22.92C82.3589 22.408 83.0069 22.016 83.7269 21.744C84.4469 21.472 85.1909 21.336 85.9589 21.336C86.5189 21.336 87.0469 21.416 87.5429 21.576C88.0549 21.736 88.4949 21.928 88.8629 22.152C89.2309 22.376 89.4949 22.6 89.6549 22.824C89.8629 23.016 90.0389 23.2 90.1829 23.376C90.3269 23.552 90.3749 23.768 90.3269 24.024C90.2789 24.184 90.2069 24.336 90.1109 24.48C90.0149 24.608 89.8949 24.744 89.7509 24.888C89.3669 25.32 88.9909 25.48 88.6229 25.368C88.4149 25.256 88.2069 25.136 87.9989 25.008C87.7909 24.88 87.5749 24.76 87.3509 24.648C87.1429 24.52 86.9269 24.416 86.7029 24.336C86.4789 24.256 86.2309 24.216 85.9589 24.216C85.3509 24.216 84.8069 24.352 84.3269 24.624C83.8629 24.88 83.4949 25.24 83.2229 25.704C82.9669 26.168 82.8389 26.704 82.8389 27.312C82.8389 27.92 82.9669 28.464 83.2229 28.944C83.4949 29.408 83.8629 29.776 84.3269 30.048C84.7909 30.304 85.3189 30.432 85.9109 30.432C86.1989 30.432 86.4709 30.4 86.7269 30.336C86.9989 30.256 87.2389 30.16 87.4469 30.048C87.6549 29.92 87.8229 29.792 87.9509 29.664C88.1269 29.552 88.2869 29.448 88.4309 29.352C88.5749 29.256 88.7269 29.208 88.8869 29.208C89.0789 29.208 89.2629 29.28 89.4389 29.424C89.6309 29.552 89.8389 29.76 90.0629 30.048C90.2709 30.288 90.3829 30.52 90.3989 30.744C90.4309 30.968 90.3829 31.184 90.2549 31.392C90.1429 31.6 89.9509 31.792 89.6789 31.968C89.4869 32.16 89.1989 32.36 88.8149 32.568C88.4469 32.76 88.0149 32.928 87.5189 33.072C87.0389 33.216 86.5349 33.288 86.0069 33.288ZM98.1709 33.384C97.1309 33.384 96.2189 33.216 95.4349 32.88C94.6669 32.544 94.0189 32.088 93.4909 31.512C92.9789 30.92 92.5869 30.264 92.3149 29.544C92.0589 28.808 91.9309 28.048 91.9309 27.264C91.9309 26.112 92.1949 25.088 92.7229 24.192C93.2509 23.296 93.9789 22.592 94.9069 22.08C95.8509 21.568 96.9309 21.312 98.1469 21.312C99.0109 21.312 99.7709 21.448 100.427 21.72C101.083 21.992 101.627 22.352 102.059 22.8C102.507 23.232 102.843 23.712 103.067 24.24C103.307 24.768 103.427 25.28 103.427 25.776C103.427 26.624 103.219 27.24 102.803 27.624C102.403 28.008 101.899 28.2 101.291 28.2H94.9549C94.9709 28.744 95.1389 29.216 95.4589 29.616C95.7949 30.016 96.2109 30.328 96.7069 30.552C97.2189 30.76 97.7389 30.864 98.2669 30.864C98.6669 30.864 99.0189 30.84 99.3229 30.792C99.6429 30.744 99.9149 30.688 100.139 30.624C100.363 30.544 100.555 30.464 100.715 30.384C100.891 30.304 101.051 30.232 101.195 30.168C101.339 30.104 101.475 30.064 101.603 30.048C101.779 30.032 101.955 30.072 102.131 30.168C102.307 30.264 102.451 30.432 102.563 30.672C102.659 30.832 102.723 30.984 102.755 31.128C102.803 31.256 102.827 31.384 102.827 31.512C102.827 31.832 102.635 32.136 102.251 32.424C101.867 32.696 101.323 32.92 100.619 33.096C99.9309 33.288 99.1149 33.384 98.1709 33.384ZM94.9549 26.496H99.8749C100.147 26.496 100.355 26.456 100.499 26.376C100.643 26.28 100.715 26.088 100.715 25.8C100.715 25.432 100.603 25.104 100.379 24.816C100.155 24.512 99.8509 24.28 99.4669 24.12C99.0829 23.944 98.6349 23.856 98.1229 23.856C97.5309 23.856 96.9949 23.976 96.5149 24.216C96.0349 24.44 95.6509 24.752 95.3629 25.152C95.0909 25.552 94.9549 26 94.9549 26.496ZM106.812 33.216C106.38 33.216 106.06 33.144 105.852 33C105.66 32.872 105.54 32.704 105.492 32.496C105.444 32.272 105.42 32.024 105.42 31.752V22.776C105.42 22.52 105.444 22.288 105.492 22.08C105.54 21.872 105.668 21.712 105.876 21.6C106.084 21.472 106.404 21.408 106.836 21.408C107.22 21.408 107.508 21.456 107.7 21.552C107.892 21.648 108.02 21.768 108.084 21.912C108.148 22.056 108.18 22.2 108.18 22.344C108.196 22.488 108.212 22.6 108.228 22.68L108.132 23.448C108.228 23.192 108.388 22.944 108.612 22.704C108.836 22.464 109.108 22.248 109.428 22.056C109.748 21.848 110.092 21.688 110.46 21.576C110.844 21.448 111.236 21.384 111.636 21.384C112.388 21.384 113.06 21.52 113.652 21.792C114.244 22.064 114.748 22.448 115.164 22.944C115.596 23.44 115.924 24.032 116.148 24.72C116.372 25.392 116.484 26.152 116.484 27V31.776C116.484 32.048 116.452 32.296 116.388 32.52C116.34 32.728 116.22 32.896 116.028 33.024C115.836 33.152 115.508 33.216 115.044 33.216C114.596 33.216 114.268 33.144 114.06 33C113.852 32.872 113.724 32.704 113.676 32.496C113.628 32.272 113.604 32.024 113.604 31.752V26.976C113.604 26.4 113.5 25.904 113.292 25.488C113.1 25.072 112.812 24.752 112.428 24.528C112.06 24.304 111.588 24.192 111.012 24.192C110.452 24.192 109.964 24.312 109.548 24.552C109.132 24.776 108.812 25.096 108.588 25.512C108.364 25.928 108.252 26.416 108.252 26.976V31.776C108.252 32.048 108.228 32.296 108.18 32.52C108.132 32.728 108.004 32.896 107.796 33.024C107.604 33.152 107.276 33.216 106.812 33.216ZM124.538 33.384C123.498 33.384 122.586 33.216 121.802 32.88C121.034 32.544 120.386 32.088 119.858 31.512C119.346 30.92 118.954 30.264 118.682 29.544C118.426 28.808 118.298 28.048 118.298 27.264C118.298 26.112 118.562 25.088 119.09 24.192C119.618 23.296 120.346 22.592 121.274 22.08C122.218 21.568 123.298 21.312 124.514 21.312C125.378 21.312 126.138 21.448 126.794 21.72C127.45 21.992 127.994 22.352 128.426 22.8C128.874 23.232 129.21 23.712 129.434 24.24C129.674 24.768 129.794 25.28 129.794 25.776C129.794 26.624 129.586 27.24 129.17 27.624C128.77 28.008 128.266 28.2 127.658 28.2H121.322C121.338 28.744 121.506 29.216 121.826 29.616C122.162 30.016 122.578 30.328 123.074 30.552C123.586 30.76 124.106 30.864 124.634 30.864C125.034 30.864 125.386 30.84 125.69 30.792C126.01 30.744 126.282 30.688 126.506 30.624C126.73 30.544 126.922 30.464 127.082 30.384C127.258 30.304 127.418 30.232 127.562 30.168C127.706 30.104 127.842 30.064 127.97 30.048C128.146 30.032 128.322 30.072 128.498 30.168C128.674 30.264 128.818 30.432 128.93 30.672C129.026 30.832 129.09 30.984 129.122 31.128C129.17 31.256 129.194 31.384 129.194 31.512C129.194 31.832 129.002 32.136 128.618 32.424C128.234 32.696 127.69 32.92 126.986 33.096C126.298 33.288 125.482 33.384 124.538 33.384ZM121.322 26.496H126.242C126.514 26.496 126.722 26.456 126.866 26.376C127.01 26.28 127.082 26.088 127.082 25.8C127.082 25.432 126.97 25.104 126.746 24.816C126.522 24.512 126.218 24.28 125.834 24.12C125.45 23.944 125.002 23.856 124.49 23.856C123.898 23.856 123.362 23.976 122.882 24.216C122.402 24.44 122.018 24.752 121.73 25.152C121.458 25.552 121.322 26 121.322 26.496Z" fill="#1F1F1F" fill-opacity="0.6"/>
<path d="M152 18V32" stroke="#1F1F1F" stroke-opacity="0.6" stroke-width="2" stroke-linecap="round" stroke-linejoin="round"/>
<path d="M145 25H159" stroke="#1F1F1F" stroke-opacity="0.6" stroke-width="2" stroke-linecap="round" stroke-linejoin="round"/>
</svg>
