<svg width="100" height="40" viewBox="0 0 100 40" fill="none" xmlns="http://www.w3.org/2000/svg">
<rect width="100" height="40" rx="20" fill="#F2B950"/>
<path d="M28.0559 25.5C28.1893 25.7533 28.2559 25.98 28.2559 26.18C28.2693 26.3667 28.2159 26.5333 28.0959 26.68C27.9759 26.8133 27.7759 26.9533 27.4959 27.1C27.0693 27.3 26.7359 27.3533 26.4959 27.26C26.2693 27.1667 26.0559 26.9067 25.8559 26.48L21.3959 17.06L16.9559 26.48C16.7559 26.8933 16.5359 27.14 16.2959 27.22C16.0559 27.3133 15.7226 27.2667 15.2959 27.08C15.0293 26.9467 14.8293 26.8067 14.6959 26.66C14.5759 26.5133 14.5226 26.34 14.5359 26.14C14.5626 25.9267 14.6493 25.6733 14.7959 25.38L20.2959 13.92C20.4026 13.7067 20.5559 13.54 20.7559 13.42C20.9693 13.2867 21.1893 13.22 21.4159 13.22C21.5759 13.22 21.7226 13.2467 21.8559 13.3C21.9893 13.3533 22.1093 13.4333 22.2159 13.54C22.3359 13.6467 22.4359 13.78 22.5159 13.94L28.0559 25.5ZM17.8359 23.56L18.7959 21.5H24.0159L24.9759 23.56H17.8359ZM32.9362 27.18C32.3229 27.18 31.7429 27.0533 31.1963 26.8C30.6496 26.5467 30.1696 26.2 29.7563 25.76C29.3429 25.3067 29.0163 24.78 28.7763 24.18C28.5363 23.5667 28.4163 22.9133 28.4163 22.22C28.4163 21.5533 28.5363 20.9267 28.7763 20.34C29.0163 19.74 29.3429 19.22 29.7563 18.78C30.1829 18.3267 30.6696 17.9733 31.2163 17.72C31.7629 17.4667 32.3363 17.34 32.9362 17.34C33.5763 17.34 34.1496 17.4667 34.6563 17.72C35.1629 17.9733 35.5896 18.3267 35.9363 18.78C36.2963 19.22 36.5696 19.74 36.7563 20.34C36.9429 20.9267 37.0429 21.56 37.0563 22.24C37.0563 22.92 36.9629 23.56 36.7763 24.16C36.6029 24.7467 36.3363 25.2667 35.9763 25.72C35.6296 26.1733 35.1963 26.5333 34.6763 26.8C34.1696 27.0533 33.5896 27.18 32.9362 27.18ZM33.2563 24.84C33.7229 24.84 34.1363 24.7333 34.4963 24.52C34.8696 24.2933 35.1629 23.9867 35.3763 23.6C35.6029 23.2133 35.7163 22.7733 35.7163 22.28C35.7163 21.7733 35.6029 21.3267 35.3763 20.94C35.1629 20.5533 34.8696 20.2467 34.4963 20.02C34.1363 19.7933 33.7229 19.68 33.2563 19.68C32.7896 19.68 32.3696 19.7933 31.9963 20.02C31.6229 20.2333 31.3229 20.54 31.0963 20.94C30.8829 21.3267 30.7763 21.7733 30.7763 22.28C30.7763 22.7733 30.8829 23.2133 31.0963 23.6C31.3229 23.9867 31.6229 24.2933 31.9963 24.52C32.3829 24.7333 32.8029 24.84 33.2563 24.84ZM36.9563 27.18C36.5829 27.18 36.3096 27.12 36.1363 27C35.9629 26.8667 35.8496 26.66 35.7963 26.38V14.06C35.7963 13.8333 35.8096 13.6333 35.8363 13.46C35.8763 13.2733 35.9763 13.1267 36.1363 13.02C36.3096 12.9 36.5763 12.84 36.9363 12.84C37.3229 12.84 37.5963 12.8933 37.7562 13C37.9163 13.1067 38.0163 13.2533 38.0563 13.44C38.1096 13.6133 38.1363 13.8133 38.1363 14.04V25.96C38.1363 26.1867 38.1163 26.3933 38.0763 26.58C38.0363 26.7667 37.9296 26.9133 37.7562 27.02C37.5963 27.1267 37.3296 27.18 36.9563 27.18ZM44.4402 27.18C43.8268 27.18 43.2468 27.0533 42.7002 26.8C42.1535 26.5467 41.6735 26.2 41.2602 25.76C40.8468 25.3067 40.5202 24.78 40.2802 24.18C40.0402 23.5667 39.9202 22.9133 39.9202 22.22C39.9202 21.5533 40.0402 20.9267 40.2802 20.34C40.5202 19.74 40.8468 19.22 41.2602 18.78C41.6868 18.3267 42.1735 17.9733 42.7202 17.72C43.2668 17.4667 43.8402 17.34 44.4402 17.34C45.0802 17.34 45.6535 17.4667 46.1602 17.72C46.6668 17.9733 47.0935 18.3267 47.4402 18.78C47.8002 19.22 48.0735 19.74 48.2602 20.34C48.4468 20.9267 48.5468 21.56 48.5602 22.24C48.5602 22.92 48.4668 23.56 48.2802 24.16C48.1068 24.7467 47.8402 25.2667 47.4802 25.72C47.1335 26.1733 46.7002 26.5333 46.1802 26.8C45.6735 27.0533 45.0935 27.18 44.4402 27.18ZM44.7602 24.84C45.2268 24.84 45.6402 24.7333 46.0002 24.52C46.3735 24.2933 46.6668 23.9867 46.8802 23.6C47.1068 23.2133 47.2202 22.7733 47.2202 22.28C47.2202 21.7733 47.1068 21.3267 46.8802 20.94C46.6668 20.5533 46.3735 20.2467 46.0002 20.02C45.6402 19.7933 45.2268 19.68 44.7602 19.68C44.2935 19.68 43.8735 19.7933 43.5002 20.02C43.1268 20.2333 42.8268 20.54 42.6002 20.94C42.3868 21.3267 42.2802 21.7733 42.2802 22.28C42.2802 22.7733 42.3868 23.2133 42.6002 23.6C42.8268 23.9867 43.1268 24.2933 43.5002 24.52C43.8868 24.7333 44.3068 24.84 44.7602 24.84ZM48.4602 27.18C48.0868 27.18 47.8135 27.12 47.6402 27C47.4668 26.8667 47.3535 26.66 47.3002 26.38V14.06C47.3002 13.8333 47.3135 13.6333 47.3402 13.46C47.3802 13.2733 47.4802 13.1267 47.6402 13.02C47.8135 12.9 48.0802 12.84 48.4402 12.84C48.8268 12.84 49.1002 12.8933 49.2602 13C49.4202 13.1067 49.5202 13.2533 49.5602 13.44C49.6135 13.6133 49.6402 13.8133 49.6402 14.04V25.96C49.6402 26.1867 49.6202 26.3933 49.5802 26.58C49.5402 26.7667 49.4335 26.9133 49.2602 27.02C49.1002 27.1267 48.8335 27.18 48.4602 27.18Z" fill="#1F1F1F"/>
<path d="M84 27C84 27.5304 83.7893 28.0391 83.4142 28.4142C83.0391 28.7893 82.5304 29 82 29H64C63.4696 29 62.9609 28.7893 62.5858 28.4142C62.2107 28.0391 62 27.5304 62 27V16C62 15.4696 62.2107 14.9609 62.5858 14.5858C62.9609 14.2107 63.4696 14 64 14H68L70 11H76L78 14H82C82.5304 14 83.0391 14.2107 83.4142 14.5858C83.7893 14.9609 84 15.4696 84 16V27Z" stroke="black" stroke-width="2" stroke-linecap="round" stroke-linejoin="round"/>
<path d="M73 25C75.2091 25 77 23.2091 77 21C77 18.7909 75.2091 17 73 17C70.7909 17 69 18.7909 69 21C69 23.2091 70.7909 25 73 25Z" stroke="black" stroke-width="2" stroke-linecap="round" stroke-linejoin="round"/>
</svg>
