<svg width="200" height="60" viewBox="0 0 200 60" fill="none" xmlns="http://www.w3.org/2000/svg">
<rect width="200" height="60" rx="30" fill="#F2B950"/>
<path d="M27.7255 41.544C26.7868 41.544 25.7948 41.3947 24.7495 41.096C23.7042 40.7973 22.6802 40.3493 21.6775 39.752C20.6748 39.1547 19.7575 38.3973 18.9255 37.48C18.1148 36.5413 17.4642 35.4533 16.9735 34.216C16.5042 32.9573 16.2695 31.528 16.2695 29.928C16.2695 28.392 16.5042 27.0267 16.9735 25.832C17.4642 24.616 18.1148 23.56 18.9255 22.664C19.7362 21.768 20.6428 21.032 21.6455 20.456C22.6482 19.8587 23.6828 19.4213 24.7495 19.144C25.8162 18.8453 26.8295 18.696 27.7895 18.696C28.8775 18.696 29.8268 18.824 30.6375 19.08C31.4482 19.336 32.1095 19.6027 32.6215 19.88C33.1335 20.136 33.4535 20.3173 33.5815 20.424C33.9655 20.6587 34.3282 20.9253 34.6695 21.224C35.0108 21.5227 35.1922 21.9173 35.2135 22.408C35.2135 22.664 35.1602 22.92 35.0535 23.176C34.9682 23.4107 34.8295 23.6667 34.6375 23.944C34.2962 24.4347 33.9655 24.7973 33.6455 25.032C33.3468 25.2453 33.0375 25.352 32.7175 25.352C32.4615 25.352 32.2162 25.288 31.9815 25.16C31.7682 25.032 31.4908 24.8613 31.1495 24.648C31.0002 24.5413 30.7868 24.4133 30.5095 24.264C30.2322 24.0933 29.8588 23.944 29.3895 23.816C28.9202 23.6667 28.3228 23.592 27.5975 23.592C26.8508 23.592 26.0935 23.7307 25.3255 24.008C24.5788 24.264 23.8855 24.6587 23.2455 25.192C22.6055 25.7253 22.0935 26.408 21.7095 27.24C21.3255 28.0507 21.1335 29 21.1335 30.088C21.1335 31.2187 21.3255 32.1893 21.7095 33C22.1148 33.8107 22.6375 34.4827 23.2775 35.016C23.9175 35.5493 24.6108 35.9547 25.3575 36.232C26.1255 36.488 26.8722 36.616 27.5975 36.616C28.2375 36.616 28.7815 36.552 29.2295 36.424C29.6988 36.296 30.0935 36.1467 30.4135 35.976C30.7548 35.784 31.0428 35.6133 31.2775 35.464C31.5122 35.3147 31.7468 35.176 31.9815 35.048C32.2375 34.92 32.4935 34.856 32.7495 34.856C33.0482 34.856 33.3468 34.9733 33.6455 35.208C33.9655 35.4427 34.2855 35.816 34.6055 36.328C34.7975 36.6053 34.9468 36.8827 35.0535 37.16C35.1602 37.416 35.2028 37.672 35.1815 37.928C35.1815 38.376 35.0108 38.7493 34.6695 39.048C34.3282 39.3253 33.9655 39.5813 33.5815 39.816C33.4108 39.9013 33.0802 40.0933 32.5895 40.392C32.0988 40.6693 31.4482 40.9253 30.6375 41.16C29.8268 41.416 28.8562 41.544 27.7255 41.544ZM49.743 41.256C48.9537 41.256 48.367 41.1173 47.983 40.84C47.6203 40.5627 47.439 40.2213 47.439 39.816L47.759 39.272C47.631 39.4853 47.3857 39.752 47.023 40.072C46.6603 40.3707 46.191 40.648 45.615 40.904C45.039 41.1387 44.3243 41.256 43.471 41.256C42.4897 41.256 41.551 41.0427 40.655 40.616C39.7803 40.1893 39.0017 39.6027 38.319 38.856C37.6363 38.088 37.0923 37.224 36.687 36.264C36.303 35.304 36.111 34.2907 36.111 33.224C36.111 32.1787 36.303 31.1867 36.687 30.248C37.0923 29.288 37.6363 28.4453 38.319 27.72C39.023 26.9733 39.8123 26.3867 40.687 25.96C41.5617 25.5333 42.4897 25.32 43.471 25.32C44.2603 25.32 44.9323 25.4373 45.487 25.672C46.0417 25.8853 46.5003 26.1413 46.863 26.44C47.247 26.7387 47.535 27.0267 47.727 27.304L47.471 26.856C47.4497 26.344 47.6203 25.96 47.983 25.704C48.367 25.4267 48.9643 25.288 49.775 25.288C50.543 25.288 51.087 25.4053 51.407 25.64C51.7483 25.8747 51.951 26.184 52.015 26.568C52.1003 26.952 52.143 27.3573 52.143 27.784V38.824C52.143 39.2293 52.1003 39.624 52.015 40.008C51.951 40.392 51.7483 40.7013 51.407 40.936C51.087 41.1493 50.5323 41.256 49.743 41.256ZM44.175 36.488C44.7297 36.488 45.231 36.3493 45.679 36.072C46.1483 35.7733 46.511 35.3787 46.767 34.888C47.0443 34.3973 47.183 33.8533 47.183 33.256C47.183 32.6373 47.0443 32.0933 46.767 31.624C46.4897 31.1333 46.1163 30.7493 45.647 30.472C45.1777 30.1733 44.6657 30.024 44.111 30.024C43.4923 30.024 42.9377 30.1733 42.447 30.472C41.9777 30.7707 41.5937 31.1653 41.295 31.656C41.0177 32.1467 40.879 32.7013 40.879 33.32C40.879 33.896 41.0177 34.4293 41.295 34.92C41.5937 35.3893 41.9883 35.7733 42.479 36.072C42.991 36.3493 43.5563 36.488 44.175 36.488ZM63.1023 41C62.0569 41 61.1289 40.7973 60.3183 40.392C59.5289 39.9653 58.8676 39.4 58.3343 38.696C57.8223 37.9707 57.4276 37.1387 57.1503 36.2C56.8943 35.2613 56.7769 34.248 56.7983 33.16C56.7983 32.1147 56.9369 31.1227 57.2143 30.184C57.4916 29.224 57.8863 28.3813 58.3983 27.656C58.9316 26.9093 59.5823 26.3333 60.3503 25.928C61.1396 25.5013 62.0569 25.288 63.1023 25.288C64.0409 25.288 64.9476 25.5013 65.8223 25.928C66.7183 26.3547 67.5076 26.9413 68.1903 27.688C68.8729 28.4133 69.4063 29.256 69.7903 30.216C70.1956 31.176 70.3983 32.1893 70.3983 33.256C70.3983 34.3227 70.1956 35.336 69.7903 36.296C69.4063 37.2347 68.8729 38.056 68.1903 38.76C67.5076 39.464 66.7289 40.0187 65.8543 40.424C64.9796 40.808 64.0623 41 63.1023 41ZM56.9263 47.912C56.1583 47.912 55.6036 47.7947 55.2623 47.56C54.9423 47.3467 54.7396 47.0587 54.6543 46.696C54.5903 46.3547 54.5583 45.9813 54.5583 45.576V27.688C54.5583 27.2613 54.5903 26.8773 54.6543 26.536C54.7183 26.1733 54.9103 25.8747 55.2303 25.64C55.5716 25.4053 56.1263 25.288 56.8943 25.288C57.5556 25.288 58.0783 25.384 58.4623 25.576C58.8676 25.768 59.1556 26.0667 59.3263 26.472V45.544C59.3476 45.9493 59.3156 46.3333 59.2303 46.696C59.1449 47.0587 58.9316 47.3467 58.5903 47.56C58.2703 47.7947 57.7156 47.912 56.9263 47.912ZM62.4303 36.488C63.0276 36.488 63.5609 36.3493 64.0303 36.072C64.4996 35.7733 64.8729 35.3787 65.1503 34.888C65.4489 34.3973 65.5983 33.8533 65.5983 33.256C65.5983 32.6373 65.4596 32.0933 65.1823 31.624C64.9049 31.1333 64.5316 30.7493 64.0623 30.472C63.5929 30.1947 63.0596 30.056 62.4623 30.056C61.8863 30.056 61.3529 30.2053 60.8623 30.504C60.3929 30.7813 60.0196 31.1653 59.7423 31.656C59.4863 32.1253 59.3583 32.6587 59.3583 33.256C59.3583 33.8533 59.4969 34.3973 59.7743 34.888C60.0516 35.3787 60.4249 35.7733 60.8943 36.072C61.3636 36.3493 61.8756 36.488 62.4303 36.488ZM80.286 41.288C79.198 41.288 78.2593 41.1707 77.47 40.936C76.702 40.7013 76.062 40.3387 75.55 39.848C75.038 39.3573 74.654 38.7387 74.398 37.992C74.1633 37.224 74.046 36.3173 74.046 35.272V22.28C74.046 21.8533 74.078 21.4693 74.142 21.128C74.2273 20.7867 74.4407 20.5093 74.782 20.296C75.1233 20.0613 75.678 19.944 76.446 19.944C77.214 19.944 77.7687 20.0613 78.11 20.296C78.4513 20.5307 78.654 20.8293 78.718 21.192C78.8033 21.5547 78.846 21.9493 78.846 22.376V35.08C78.846 35.4213 78.8673 35.7093 78.91 35.944C78.974 36.1573 79.0593 36.3173 79.166 36.424C79.2727 36.5307 79.422 36.6053 79.614 36.648C79.806 36.6907 80.0407 36.712 80.318 36.712C80.7873 36.712 81.2033 36.7547 81.566 36.84C81.9287 36.9253 82.206 37.1173 82.398 37.416C82.6113 37.7147 82.718 38.216 82.718 38.92C82.718 39.688 82.6007 40.2427 82.366 40.584C82.1313 40.9253 81.822 41.128 81.438 41.192C81.0753 41.256 80.6913 41.288 80.286 41.288ZM73.054 25.544H76.574L80.99 25.416C81.3953 25.416 81.7793 25.4587 82.142 25.544C82.5047 25.608 82.8033 25.8107 83.038 26.152C83.2727 26.4933 83.39 27.0587 83.39 27.848C83.39 28.5733 83.2727 29.1067 83.038 29.448C82.8247 29.7893 82.5367 30.0133 82.174 30.12C81.8113 30.2053 81.4167 30.248 80.99 30.248L76.798 30.152H72.926C72.3073 30.1307 71.87 29.9493 71.614 29.608C71.3793 29.2453 71.262 28.648 71.262 27.816C71.262 27.048 71.4113 26.4827 71.71 26.12C72.0087 25.736 72.4567 25.544 73.054 25.544ZM92.0983 41.256C91.1169 41.256 90.1889 41.064 89.3143 40.68C88.4609 40.296 87.7143 39.7627 87.0743 39.08C86.4343 38.376 85.9329 37.5547 85.5703 36.616C85.2289 35.656 85.0583 34.6107 85.0583 33.48V27.688C85.0583 27.2613 85.1009 26.8667 85.1863 26.504C85.2716 26.1413 85.4743 25.8427 85.7943 25.608C86.1356 25.3733 86.7009 25.256 87.4903 25.256C88.2796 25.256 88.8343 25.3733 89.1543 25.608C89.4956 25.8427 89.6983 26.152 89.7623 26.536C89.8476 26.8987 89.8903 27.2933 89.8903 27.72V33.48C89.8903 34.0987 89.9969 34.6427 90.2103 35.112C90.4449 35.56 90.7756 35.9013 91.2023 36.136C91.6503 36.3707 92.1729 36.488 92.7703 36.488C93.3889 36.488 93.9116 36.3707 94.3383 36.136C94.7863 35.88 95.1276 35.528 95.3623 35.08C95.6183 34.632 95.7463 34.0987 95.7463 33.48V27.656C95.7463 27.2293 95.7889 26.8347 95.8743 26.472C95.9596 26.1093 96.1623 25.8213 96.4823 25.608C96.8236 25.3733 97.3889 25.256 98.1783 25.256C98.9676 25.256 99.5223 25.3733 99.8423 25.608C100.184 25.8427 100.386 26.152 100.45 26.536C100.536 26.8987 100.578 27.2827 100.578 27.688V38.952C100.578 39.3573 100.536 39.7413 100.45 40.104C100.386 40.4453 100.184 40.7227 99.8423 40.936C99.5009 41.1493 98.9463 41.256 98.1783 41.256C97.6023 41.256 97.1543 41.192 96.8343 41.064C96.5143 40.936 96.2796 40.776 96.1303 40.584C95.9809 40.392 95.8849 40.1893 95.8423 39.976C95.8209 39.7627 95.8103 39.5707 95.8103 39.4L96.2263 39.048C96.1623 39.1333 96.0236 39.2933 95.8103 39.528C95.5969 39.7627 95.3089 40.0187 94.9463 40.296C94.6049 40.552 94.1996 40.776 93.7303 40.968C93.2609 41.16 92.7169 41.256 92.0983 41.256ZM105.525 41.288C104.735 41.288 104.17 41.1813 103.829 40.968C103.509 40.7333 103.306 40.424 103.221 40.04C103.157 39.656 103.125 39.2613 103.125 38.856V27.688C103.125 27.2613 103.167 26.8667 103.253 26.504C103.338 26.1413 103.541 25.8533 103.861 25.64C104.202 25.4053 104.767 25.288 105.557 25.288C106.303 25.288 106.837 25.3947 107.157 25.608C107.498 25.8 107.711 26.0347 107.797 26.312C107.882 26.568 107.925 26.792 107.925 26.984L107.541 27.176C107.583 27.0907 107.69 26.9413 107.861 26.728C108.053 26.4933 108.309 26.2587 108.629 26.024C108.949 25.768 109.333 25.5547 109.781 25.384C110.25 25.2133 110.783 25.128 111.381 25.128C111.615 25.128 111.871 25.1493 112.149 25.192C112.447 25.2133 112.746 25.2773 113.045 25.384C113.365 25.4693 113.653 25.5973 113.909 25.768C114.165 25.9173 114.367 26.1093 114.517 26.344C114.687 26.5787 114.773 26.8667 114.773 27.208C114.773 28.0827 114.57 28.8293 114.165 29.448C113.759 30.0453 113.247 30.344 112.629 30.344C112.266 30.344 112.01 30.312 111.861 30.248C111.711 30.184 111.583 30.12 111.477 30.056C111.391 29.992 111.285 29.9387 111.157 29.896C111.029 29.832 110.794 29.8 110.453 29.8C110.133 29.8 109.823 29.8427 109.525 29.928C109.247 30.0133 108.981 30.152 108.725 30.344C108.49 30.5147 108.298 30.7387 108.149 31.016C108.021 31.272 107.957 31.56 107.957 31.88V38.92C107.957 39.3253 107.914 39.72 107.829 40.104C107.765 40.4667 107.562 40.7547 107.221 40.968C106.879 41.1813 106.314 41.288 105.525 41.288ZM123.623 41.576C122.13 41.576 120.839 41.3307 119.751 40.84C118.684 40.3493 117.81 39.7093 117.127 38.92C116.444 38.1093 115.932 37.2133 115.591 36.232C115.271 35.2507 115.111 34.2693 115.111 33.288C115.111 31.688 115.474 30.2693 116.199 29.032C116.924 27.7947 117.927 26.824 119.207 26.12C120.487 25.3947 121.959 25.032 123.623 25.032C124.86 25.032 125.927 25.2347 126.823 25.64C127.74 26.024 128.487 26.536 129.063 27.176C129.66 27.7947 130.098 28.4667 130.375 29.192C130.674 29.9173 130.823 30.6107 130.823 31.272C130.823 32.4453 130.535 33.32 129.959 33.896C129.404 34.4507 128.69 34.728 127.815 34.728H120.199C120.242 35.2827 120.434 35.752 120.775 36.136C121.138 36.52 121.586 36.8187 122.119 37.032C122.652 37.2453 123.218 37.352 123.815 37.352C124.327 37.352 124.775 37.3307 125.159 37.288C125.543 37.224 125.874 37.1493 126.151 37.064C126.428 36.9573 126.684 36.8613 126.919 36.776C127.154 36.6693 127.356 36.584 127.527 36.52C127.719 36.456 127.9 36.4133 128.071 36.392C128.391 36.3707 128.679 36.4667 128.935 36.68C129.212 36.872 129.458 37.1707 129.671 37.576C129.82 37.8107 129.916 38.0347 129.959 38.248C130.023 38.4613 130.055 38.6747 130.055 38.888C130.055 39.4 129.788 39.8587 129.255 40.264C128.743 40.6693 128.007 40.9893 127.047 41.224C126.108 41.4587 124.967 41.576 123.623 41.576ZM120.199 32.104H125.255C125.596 32.104 125.842 32.0507 125.991 31.944C126.162 31.816 126.247 31.5813 126.247 31.24C126.247 30.856 126.13 30.5253 125.895 30.248C125.66 29.9493 125.34 29.7253 124.935 29.576C124.551 29.4053 124.103 29.32 123.591 29.32C122.93 29.32 122.343 29.448 121.831 29.704C121.319 29.96 120.914 30.3013 120.615 30.728C120.338 31.1547 120.199 31.6133 120.199 32.104Z" fill="black"/>
<path d="M180.333 40.6667C180.333 41.5507 179.982 42.3986 179.357 43.0237C178.732 43.6488 177.884 44 177 44H147C146.116 44 145.268 43.6488 144.643 43.0237C144.018 42.3986 143.667 41.5507 143.667 40.6667V22.3333C143.667 21.4493 144.018 20.6014 144.643 19.9763C145.268 19.3512 146.116 19 147 19H153.667L157 14H167L170.333 19H177C177.884 19 178.732 19.3512 179.357 19.9763C179.982 20.6014 180.333 21.4493 180.333 22.3333V40.6667Z" stroke="black" stroke-width="3" stroke-linecap="round" stroke-linejoin="round"/>
<path d="M162 37.3333C165.682 37.3333 168.667 34.3486 168.667 30.6667C168.667 26.9848 165.682 24 162 24C158.318 24 155.333 26.9848 155.333 30.6667C155.333 34.3486 158.318 37.3333 162 37.3333Z" stroke="black" stroke-width="3" stroke-linecap="round" stroke-linejoin="round"/>
</svg>
