<svg width="264" height="40" viewBox="0 0 264 40" fill="none" xmlns="http://www.w3.org/2000/svg">
<rect width="264" height="40" rx="20" fill="#F2B950"/>
<path d="M24.9865 27.28C24.3332 27.28 23.6732 27.1867 23.0065 27C22.3398 26.8 21.6998 26.5067 21.0865 26.12C20.4732 25.72 19.9265 25.2333 19.4465 24.66C18.9798 24.0733 18.6065 23.4 18.3265 22.64C18.0465 21.8667 17.9065 21.0133 17.9065 20.08C17.9065 19.16 18.0465 18.3333 18.3265 17.6C18.6065 16.8533 18.9798 16.2 19.4465 15.64C19.9265 15.08 20.4665 14.6133 21.0665 14.24C21.6798 13.8667 22.3198 13.5867 22.9865 13.4C23.6665 13.2 24.3398 13.0933 25.0065 13.08C25.6865 13.08 26.2732 13.1533 26.7665 13.3C27.2598 13.4467 27.6598 13.6067 27.9665 13.78C28.2732 13.94 28.4798 14.0533 28.5865 14.12C28.7998 14.2533 28.9998 14.4067 29.1865 14.58C29.3865 14.74 29.4932 14.94 29.5065 15.18C29.5198 15.34 29.4998 15.4867 29.4465 15.62C29.3932 15.74 29.3198 15.8667 29.2265 16C29.0665 16.2267 28.9065 16.3933 28.7465 16.5C28.5865 16.6067 28.4265 16.66 28.2665 16.66C28.1198 16.66 27.9798 16.62 27.8465 16.54C27.7265 16.46 27.5732 16.36 27.3865 16.24C27.3065 16.1867 27.1598 16.1067 26.9465 16C26.7465 15.88 26.4732 15.7733 26.1265 15.68C25.7932 15.5867 25.3865 15.54 24.9065 15.54C24.3332 15.54 23.7732 15.64 23.2265 15.84C22.6798 16.04 22.1865 16.34 21.7465 16.74C21.3198 17.1267 20.9798 17.6133 20.7265 18.2C20.4732 18.7733 20.3465 19.4333 20.3465 20.18C20.3465 20.9267 20.4732 21.5933 20.7265 22.18C20.9798 22.7533 21.3198 23.24 21.7465 23.64C22.1865 24.0267 22.6798 24.32 23.2265 24.52C23.7732 24.72 24.3332 24.82 24.9065 24.82C25.3598 24.82 25.7465 24.78 26.0665 24.7C26.3998 24.6067 26.6798 24.5 26.9065 24.38C27.1465 24.2467 27.3265 24.1467 27.4465 24.08C27.5932 23.9867 27.7332 23.9 27.8665 23.82C27.9998 23.74 28.1398 23.7 28.2865 23.7C28.4465 23.7 28.5998 23.7533 28.7465 23.86C28.9065 23.9667 29.0598 24.14 29.2065 24.38C29.2998 24.5267 29.3732 24.6667 29.4265 24.8C29.4798 24.9333 29.4998 25.0733 29.4865 25.22C29.4732 25.46 29.3665 25.6667 29.1665 25.84C28.9798 26 28.7798 26.14 28.5665 26.26C28.4598 26.3267 28.2532 26.4467 27.9465 26.62C27.6532 26.78 27.2598 26.9267 26.7665 27.06C26.2732 27.2067 25.6798 27.28 24.9865 27.28ZM39.1013 27.16C38.7147 27.16 38.428 27.0867 38.2413 26.94C38.0547 26.7933 37.9613 26.5933 37.9613 26.34L38.1013 25.68C37.9947 25.8533 37.8147 26.06 37.5613 26.3C37.308 26.5267 36.9747 26.7333 36.5613 26.92C36.148 27.0933 35.648 27.18 35.0613 27.18C34.4347 27.18 33.8413 27.0533 33.2813 26.8C32.7347 26.5333 32.248 26.1733 31.8213 25.72C31.408 25.2533 31.0747 24.7267 30.8213 24.14C30.5813 23.54 30.4613 22.9 30.4613 22.22C30.4613 21.5667 30.5813 20.9533 30.8213 20.38C31.0747 19.7933 31.4147 19.2733 31.8413 18.82C32.268 18.3667 32.7547 18.0133 33.3013 17.76C33.8613 17.4933 34.448 17.36 35.0613 17.36C35.608 17.36 36.068 17.4333 36.4413 17.58C36.828 17.7267 37.1547 17.9133 37.4213 18.14C37.688 18.3533 37.908 18.58 38.0813 18.82L37.9613 18.24C37.9613 17.9467 38.0547 17.7267 38.2413 17.58C38.428 17.42 38.7213 17.34 39.1213 17.34C39.4947 17.34 39.7613 17.4 39.9213 17.52C40.0813 17.6267 40.1813 17.78 40.2213 17.98C40.2613 18.1667 40.2813 18.38 40.2813 18.62V25.94C40.2813 26.1667 40.2613 26.3733 40.2213 26.56C40.1813 26.7467 40.0747 26.8933 39.9013 27C39.7413 27.1067 39.4747 27.16 39.1013 27.16ZM35.4213 24.84C35.8747 24.84 36.2813 24.7267 36.6413 24.5C37.0013 24.2733 37.288 23.9667 37.5013 23.58C37.728 23.18 37.8413 22.74 37.8413 22.26C37.8413 21.74 37.728 21.2867 37.5013 20.9C37.2747 20.5133 36.9747 20.2133 36.6013 20C36.2413 19.7733 35.8347 19.66 35.3813 19.66C34.888 19.66 34.448 19.78 34.0613 20.02C33.6747 20.2467 33.368 20.56 33.1413 20.96C32.928 21.3467 32.8213 21.7867 32.8213 22.28C32.8213 22.76 32.9347 23.1933 33.1613 23.58C33.388 23.9667 33.6947 24.2733 34.0813 24.5C34.4813 24.7267 34.928 24.84 35.4213 24.84ZM47.348 27.06C46.6947 27.06 46.108 26.94 45.588 26.7C45.0814 26.4467 44.648 26.1 44.288 25.66C43.9414 25.2067 43.6747 24.6867 43.488 24.1C43.3147 23.5133 43.228 22.88 43.228 22.2C43.2414 21.52 43.3414 20.8867 43.528 20.3C43.7147 19.7 43.9814 19.18 44.328 18.74C44.688 18.3 45.1214 17.9533 45.628 17.7C46.1347 17.4467 46.708 17.32 47.348 17.32C47.9614 17.32 48.5347 17.4467 49.068 17.7C49.6147 17.9533 50.0947 18.3067 50.508 18.76C50.9347 19.2133 51.268 19.74 51.508 20.34C51.748 20.9267 51.868 21.56 51.868 22.24C51.868 22.9333 51.748 23.5733 51.508 24.16C51.268 24.7467 50.9414 25.26 50.528 25.7C50.1147 26.1267 49.6347 26.46 49.088 26.7C48.5414 26.94 47.9614 27.06 47.348 27.06ZM43.348 31.22C42.988 31.22 42.7214 31.1667 42.548 31.06C42.3747 30.9533 42.268 30.8133 42.228 30.64C42.188 30.4667 42.168 30.2667 42.168 30.04V18.54C42.168 18.3133 42.188 18.1133 42.228 17.94C42.268 17.7667 42.368 17.6267 42.528 17.52C42.7014 17.4 42.968 17.34 43.328 17.34C43.6747 17.34 43.948 17.3933 44.148 17.5C44.348 17.6067 44.4814 17.7867 44.548 18.04V30.02C44.5614 30.2467 44.5414 30.4467 44.488 30.62C44.448 30.8067 44.3414 30.9533 44.168 31.06C43.9947 31.1667 43.7214 31.22 43.348 31.22ZM47.028 24.82C47.4947 24.82 47.9147 24.7133 48.288 24.5C48.6614 24.2733 48.9547 23.9667 49.168 23.58C49.3947 23.18 49.508 22.7333 49.508 22.24C49.508 21.7333 49.3947 21.2867 49.168 20.9C48.9547 20.5133 48.6614 20.2133 48.288 20C47.9147 19.7733 47.4947 19.66 47.028 19.66C46.5747 19.66 46.1614 19.7733 45.788 20C45.4147 20.2267 45.1147 20.5333 44.888 20.92C44.6747 21.2933 44.568 21.7333 44.568 22.24C44.568 22.7333 44.6747 23.18 44.888 23.58C45.1147 23.9667 45.4147 24.2733 45.788 24.5C46.1614 24.7133 46.5747 24.82 47.028 24.82ZM58.2223 27.2C57.5689 27.2 57.0089 27.1333 56.5423 27C56.0756 26.8667 55.6956 26.66 55.4023 26.38C55.1089 26.1 54.8889 25.74 54.7423 25.3C54.6089 24.8467 54.5423 24.3133 54.5423 23.7V15.22C54.5423 14.98 54.5623 14.7733 54.6023 14.6C54.6556 14.4267 54.7623 14.2933 54.9223 14.2C55.0956 14.0933 55.3623 14.04 55.7223 14.04C56.0956 14.04 56.3623 14.0933 56.5223 14.2C56.6956 14.3067 56.8023 14.4533 56.8423 14.64C56.8956 14.8133 56.9223 15.0067 56.9223 15.22V23.62C56.9223 23.9 56.9423 24.1267 56.9823 24.3C57.0356 24.4733 57.1089 24.6067 57.2023 24.7C57.3089 24.78 57.4423 24.84 57.6023 24.88C57.7756 24.9067 57.9823 24.92 58.2223 24.92C58.4756 24.92 58.6889 24.94 58.8623 24.98C59.0489 25.02 59.1889 25.12 59.2823 25.28C59.3756 25.4267 59.4223 25.6733 59.4223 26.02C59.4223 26.3933 59.3623 26.6667 59.2423 26.84C59.1356 27 58.9889 27.1 58.8023 27.14C58.6289 27.18 58.4356 27.2 58.2223 27.2ZM53.7223 17.54L55.7823 17.56L58.5423 17.48C58.7689 17.48 58.9689 17.5067 59.1423 17.56C59.3289 17.6 59.4756 17.7067 59.5823 17.88C59.6889 18.04 59.7423 18.3067 59.7423 18.68C59.7423 19.0267 59.6889 19.2867 59.5823 19.46C59.4756 19.6333 59.3356 19.7467 59.1623 19.8C58.9889 19.84 58.7889 19.86 58.5623 19.86L55.8823 19.82L53.6623 19.84C53.3289 19.8267 53.0956 19.7333 52.9623 19.56C52.8423 19.3733 52.7823 19.0733 52.7823 18.66C52.7823 18.2733 52.8556 17.9933 53.0023 17.82C53.1623 17.6333 53.4023 17.54 53.7223 17.54ZM65.3134 27.18C64.7 27.18 64.1334 27.0733 63.6134 26.86C63.1067 26.6333 62.66 26.3133 62.2734 25.9C61.8867 25.4867 61.5867 24.9933 61.3734 24.42C61.16 23.8467 61.0534 23.2133 61.0534 22.52V18.54C61.0534 18.3133 61.0734 18.1133 61.1134 17.94C61.1534 17.7533 61.26 17.6067 61.4334 17.5C61.6067 17.3933 61.8734 17.34 62.2334 17.34C62.62 17.34 62.8934 17.3933 63.0534 17.5C63.2267 17.6067 63.3334 17.7533 63.3734 17.94C63.4134 18.1267 63.4334 18.3333 63.4334 18.56V22.52C63.4334 23 63.5134 23.4133 63.6734 23.76C63.8467 24.1067 64.0934 24.38 64.4134 24.58C64.7334 24.7667 65.1267 24.86 65.5934 24.86C66.0734 24.86 66.48 24.7667 66.8134 24.58C67.16 24.38 67.4267 24.1067 67.6134 23.76C67.8 23.4 67.8934 22.9867 67.8934 22.52V18.52C67.8934 18.2933 67.9134 18.0933 67.9534 17.92C67.9934 17.7333 68.1 17.5933 68.2734 17.5C68.4467 17.3933 68.72 17.34 69.0934 17.34C69.4667 17.34 69.7334 17.3933 69.8934 17.5C70.0534 17.6067 70.1534 17.7533 70.1934 17.94C70.2467 18.1267 70.2734 18.3267 70.2734 18.54V26.04C70.2734 26.24 70.2467 26.4267 70.1934 26.6C70.1534 26.7733 70.0467 26.9133 69.8734 27.02C69.7134 27.1267 69.4467 27.18 69.0734 27.18C68.8067 27.18 68.5934 27.1467 68.4334 27.08C68.2867 27.0267 68.1734 26.9533 68.0934 26.86C68.0267 26.7533 67.98 26.6467 67.9534 26.54C67.94 26.4333 67.9334 26.3267 67.9334 26.22L68.0934 25.68C68.0134 25.8 67.8934 25.9467 67.7334 26.12C67.5734 26.28 67.3734 26.4467 67.1334 26.62C66.9067 26.78 66.64 26.9133 66.3334 27.02C66.0267 27.1267 65.6867 27.18 65.3134 27.18ZM73.429 27.2C73.069 27.2 72.8023 27.14 72.629 27.02C72.469 26.9133 72.369 26.7667 72.329 26.58C72.289 26.3933 72.269 26.1867 72.269 25.96V18.54C72.269 18.3 72.289 18.0933 72.329 17.92C72.369 17.7333 72.469 17.5933 72.629 17.5C72.8023 17.3933 73.0757 17.34 73.449 17.34C73.809 17.34 74.069 17.3867 74.229 17.48C74.4023 17.5733 74.509 17.6933 74.549 17.84C74.6023 17.9733 74.629 18.1067 74.629 18.24L74.469 18.6C74.5357 18.4933 74.629 18.3667 74.749 18.22C74.869 18.06 75.029 17.9067 75.229 17.76C75.429 17.6 75.669 17.4733 75.949 17.38C76.229 17.2733 76.5623 17.22 76.949 17.22C77.109 17.22 77.2757 17.24 77.449 17.28C77.6357 17.3067 77.8157 17.3533 77.989 17.42C78.1757 17.4733 78.3423 17.5467 78.489 17.64C78.6357 17.7333 78.749 17.8467 78.829 17.98C78.909 18.1 78.949 18.24 78.949 18.4C78.949 18.8267 78.8423 19.1867 78.629 19.48C78.4157 19.7733 78.1623 19.92 77.869 19.92C77.669 19.92 77.5223 19.9 77.429 19.86C77.3357 19.82 77.2557 19.7733 77.189 19.72C77.1357 19.6667 77.049 19.62 76.929 19.58C76.8223 19.54 76.649 19.52 76.409 19.52C76.209 19.52 76.0023 19.5533 75.789 19.62C75.589 19.6867 75.4023 19.7867 75.229 19.92C75.0557 20.0533 74.9157 20.2267 74.809 20.44C74.7023 20.64 74.649 20.8733 74.649 21.14V26C74.649 26.2267 74.629 26.4333 74.589 26.62C74.549 26.7933 74.4423 26.9333 74.269 27.04C74.0957 27.1467 73.8157 27.2 73.429 27.2ZM84.7043 27.32C83.8376 27.32 83.0776 27.18 82.4243 26.9C81.7843 26.62 81.2443 26.24 80.8043 25.76C80.3776 25.2667 80.051 24.72 79.8243 24.12C79.611 23.5067 79.5043 22.8733 79.5043 22.22C79.5043 21.26 79.7243 20.4067 80.1643 19.66C80.6043 18.9133 81.211 18.3267 81.9843 17.9C82.771 17.4733 83.671 17.26 84.6843 17.26C85.4043 17.26 86.0376 17.3733 86.5843 17.6C87.131 17.8267 87.5843 18.1267 87.9443 18.5C88.3176 18.86 88.5976 19.26 88.7843 19.7C88.9843 20.14 89.0843 20.5667 89.0843 20.98C89.0843 21.6867 88.911 22.2 88.5643 22.52C88.231 22.84 87.811 23 87.3043 23H82.0243C82.0376 23.4533 82.1776 23.8467 82.4443 24.18C82.7243 24.5133 83.071 24.7733 83.4843 24.96C83.911 25.1333 84.3443 25.22 84.7843 25.22C85.1176 25.22 85.411 25.2 85.6643 25.16C85.931 25.12 86.1576 25.0733 86.3443 25.02C86.531 24.9533 86.691 24.8867 86.8243 24.82C86.971 24.7533 87.1043 24.6933 87.2243 24.64C87.3443 24.5867 87.4576 24.5533 87.5643 24.54C87.711 24.5267 87.8576 24.56 88.0043 24.64C88.151 24.72 88.271 24.86 88.3643 25.06C88.4443 25.1933 88.4976 25.32 88.5243 25.44C88.5643 25.5467 88.5843 25.6533 88.5843 25.76C88.5843 26.0267 88.4243 26.28 88.1043 26.52C87.7843 26.7467 87.331 26.9333 86.7443 27.08C86.171 27.24 85.491 27.32 84.7043 27.32ZM82.0243 21.58H86.1243C86.351 21.58 86.5243 21.5467 86.6443 21.48C86.7643 21.4 86.8243 21.24 86.8243 21C86.8243 20.6933 86.731 20.42 86.5443 20.18C86.3576 19.9267 86.1043 19.7333 85.7843 19.6C85.4643 19.4533 85.091 19.38 84.6643 19.38C84.171 19.38 83.7243 19.48 83.3243 19.68C82.9243 19.8667 82.6043 20.1267 82.3643 20.46C82.1376 20.7933 82.0243 21.1667 82.0243 21.58ZM96.7665 27.18C96.4198 27.18 96.1598 27.12 95.9865 27C95.8132 26.88 95.6998 26.72 95.6465 26.52C95.6065 26.32 95.5865 26.1 95.5865 25.86V14.5C95.5865 14.26 95.6132 14.0467 95.6665 13.86C95.7198 13.66 95.8265 13.5 95.9865 13.38C96.1598 13.26 96.4265 13.2 96.7865 13.2H102.066C102.84 13.2 103.52 13.38 104.106 13.74C104.706 14.1 105.173 14.58 105.506 15.18C105.84 15.7667 106.006 16.4133 106.006 17.12C106.006 17.44 105.966 17.76 105.886 18.08C105.82 18.3867 105.706 18.6733 105.546 18.94C105.4 19.2067 105.213 19.4467 104.986 19.66C105.293 19.9 105.56 20.1933 105.786 20.54C106.013 20.8867 106.18 21.2667 106.286 21.68C106.406 22.08 106.466 22.5 106.466 22.94C106.453 23.54 106.34 24.1 106.126 24.62C105.913 25.1267 105.613 25.5733 105.226 25.96C104.853 26.3467 104.413 26.6467 103.906 26.86C103.4 27.0733 102.853 27.18 102.266 27.18H96.7665ZM98.0065 24.82H102.066C102.453 24.82 102.793 24.7467 103.086 24.6C103.393 24.4533 103.633 24.2267 103.806 23.92C103.98 23.6133 104.066 23.2133 104.066 22.72C104.066 22.3333 104.013 22.0267 103.906 21.8C103.813 21.56 103.68 21.3733 103.506 21.24C103.346 21.1067 103.16 21.0133 102.946 20.96C102.746 20.9067 102.546 20.88 102.346 20.88C102.146 20.8667 101.96 20.86 101.786 20.86H100.866C100.52 20.86 100.266 20.78 100.106 20.62C99.9465 20.4467 99.8665 20.1667 99.8665 19.78C99.8665 19.42 99.9532 19.1667 100.126 19.02C100.3 18.86 100.566 18.78 100.926 18.78H101.826C102 18.78 102.186 18.7733 102.386 18.76C102.6 18.7467 102.8 18.7 102.986 18.62C103.173 18.5267 103.326 18.38 103.446 18.18C103.566 17.98 103.626 17.6867 103.626 17.3C103.626 16.7 103.466 16.2667 103.146 16C102.84 15.72 102.306 15.58 101.546 15.58H98.0065V24.82ZM116.269 27.16C115.883 27.16 115.596 27.0867 115.409 26.94C115.223 26.7933 115.129 26.5933 115.129 26.34L115.269 25.68C115.163 25.8533 114.983 26.06 114.729 26.3C114.476 26.5267 114.143 26.7333 113.729 26.92C113.316 27.0933 112.816 27.18 112.229 27.18C111.603 27.18 111.009 27.0533 110.449 26.8C109.903 26.5333 109.416 26.1733 108.989 25.72C108.576 25.2533 108.243 24.7267 107.989 24.14C107.749 23.54 107.629 22.9 107.629 22.22C107.629 21.5667 107.749 20.9533 107.989 20.38C108.243 19.7933 108.583 19.2733 109.009 18.82C109.436 18.3667 109.923 18.0133 110.469 17.76C111.029 17.4933 111.616 17.36 112.229 17.36C112.776 17.36 113.236 17.4333 113.609 17.58C113.996 17.7267 114.323 17.9133 114.589 18.14C114.856 18.3533 115.076 18.58 115.249 18.82L115.129 18.24C115.129 17.9467 115.223 17.7267 115.409 17.58C115.596 17.42 115.889 17.34 116.289 17.34C116.663 17.34 116.929 17.4 117.089 17.52C117.249 17.6267 117.349 17.78 117.389 17.98C117.429 18.1667 117.449 18.38 117.449 18.62V25.94C117.449 26.1667 117.429 26.3733 117.389 26.56C117.349 26.7467 117.243 26.8933 117.069 27C116.909 27.1067 116.643 27.16 116.269 27.16ZM112.589 24.84C113.043 24.84 113.449 24.7267 113.809 24.5C114.169 24.2733 114.456 23.9667 114.669 23.58C114.896 23.18 115.009 22.74 115.009 22.26C115.009 21.74 114.896 21.2867 114.669 20.9C114.443 20.5133 114.143 20.2133 113.769 20C113.409 19.7733 113.003 19.66 112.549 19.66C112.056 19.66 111.616 19.78 111.229 20.02C110.843 20.2467 110.536 20.56 110.309 20.96C110.096 21.3467 109.989 21.7867 109.989 22.28C109.989 22.76 110.103 23.1933 110.329 23.58C110.556 23.9667 110.863 24.2733 111.249 24.5C111.649 24.7267 112.096 24.84 112.589 24.84ZM124.216 27.24C123.576 27.24 122.949 27.1333 122.336 26.92C121.736 26.6933 121.189 26.3667 120.696 25.94C120.216 25.5133 119.829 24.9933 119.536 24.38C119.256 23.7533 119.116 23.0467 119.116 22.26C119.116 21.4733 119.256 20.7733 119.536 20.16C119.829 19.5467 120.216 19.0267 120.696 18.6C121.176 18.1733 121.716 17.8467 122.316 17.62C122.916 17.3933 123.536 17.28 124.176 17.28C124.643 17.28 125.083 17.3467 125.496 17.48C125.923 17.6133 126.289 17.7733 126.596 17.96C126.903 18.1467 127.123 18.3333 127.256 18.52C127.429 18.68 127.576 18.8333 127.696 18.98C127.816 19.1267 127.856 19.3067 127.816 19.52C127.776 19.6533 127.716 19.78 127.636 19.9C127.556 20.0067 127.456 20.12 127.336 20.24C127.016 20.6 126.703 20.7333 126.396 20.64C126.223 20.5467 126.049 20.4467 125.876 20.34C125.703 20.2333 125.523 20.1333 125.336 20.04C125.163 19.9333 124.983 19.8467 124.796 19.78C124.609 19.7133 124.403 19.68 124.176 19.68C123.669 19.68 123.216 19.7933 122.816 20.02C122.429 20.2333 122.123 20.5333 121.896 20.92C121.683 21.3067 121.576 21.7533 121.576 22.26C121.576 22.7667 121.683 23.22 121.896 23.62C122.123 24.0067 122.429 24.3133 122.816 24.54C123.203 24.7533 123.643 24.86 124.136 24.86C124.376 24.86 124.603 24.8333 124.816 24.78C125.043 24.7133 125.243 24.6333 125.416 24.54C125.589 24.4333 125.729 24.3267 125.836 24.22C125.983 24.1267 126.116 24.04 126.236 23.96C126.356 23.88 126.483 23.84 126.616 23.84C126.776 23.84 126.929 23.9 127.076 24.02C127.236 24.1267 127.409 24.3 127.596 24.54C127.769 24.74 127.863 24.9333 127.876 25.12C127.903 25.3067 127.863 25.4867 127.756 25.66C127.663 25.8333 127.503 25.9933 127.276 26.14C127.116 26.3 126.876 26.4667 126.556 26.64C126.249 26.8 125.889 26.94 125.476 27.06C125.076 27.18 124.656 27.24 124.216 27.24ZM137.433 25.04C137.779 25.3333 137.959 25.6067 137.973 25.86C137.999 26.1133 137.866 26.4067 137.573 26.74C137.346 26.9933 137.146 27.16 136.973 27.24C136.799 27.32 136.626 27.32 136.453 27.24C136.279 27.1733 136.073 27.04 135.833 26.84L132.013 23.62V26C132.013 26.2133 131.986 26.4133 131.933 26.6C131.893 26.7867 131.786 26.9333 131.613 27.04C131.453 27.1467 131.186 27.2 130.813 27.2C130.439 27.2 130.166 27.14 129.993 27.02C129.833 26.9133 129.733 26.7667 129.693 26.58C129.653 26.3933 129.633 26.1933 129.633 25.98V14.04C129.633 13.8133 129.653 13.6133 129.693 13.44C129.746 13.2533 129.853 13.1067 130.013 13C130.186 12.88 130.459 12.82 130.833 12.82C131.206 12.82 131.473 12.88 131.633 13C131.793 13.1067 131.893 13.2533 131.933 13.44C131.986 13.6133 132.013 13.82 132.013 14.06V20.62L134.773 17.94C134.986 17.74 135.186 17.6067 135.373 17.54C135.559 17.46 135.739 17.4533 135.913 17.52C136.099 17.5733 136.293 17.7133 136.493 17.94C136.826 18.3 136.986 18.6 136.973 18.84C136.959 19.0667 136.793 19.34 136.473 19.66L133.773 22.16L137.433 25.04ZM143.229 31.2C142.749 31.2 142.289 31.14 141.849 31.02C141.409 30.9133 141.009 30.7667 140.649 30.58C140.302 30.3933 140.022 30.1933 139.809 29.98C139.609 29.7667 139.509 29.5667 139.509 29.38C139.509 29.1933 139.535 29.0333 139.589 28.9C139.655 28.7667 139.749 28.6333 139.869 28.5C140.029 28.34 140.155 28.22 140.249 28.14C140.355 28.06 140.495 28.02 140.669 28.02C140.815 28.02 140.955 28.0733 141.089 28.18C141.235 28.2867 141.402 28.4067 141.589 28.54C141.775 28.6733 142.002 28.7933 142.269 28.9C142.535 29.0067 142.875 29.06 143.289 29.06C143.635 29.06 143.955 29 144.249 28.88C144.542 28.76 144.789 28.58 144.989 28.34C145.202 28.1133 145.369 27.84 145.489 27.52C145.609 27.2 145.669 26.84 145.669 26.44L145.649 18.16C145.675 17.8533 145.782 17.64 145.969 17.52C146.155 17.3867 146.442 17.32 146.829 17.32C147.189 17.32 147.449 17.3733 147.609 17.48C147.769 17.5733 147.869 17.7133 147.909 17.9C147.949 18.0733 147.969 18.2667 147.969 18.48V26.58C147.969 27.3133 147.842 27.9667 147.589 28.54C147.335 29.1133 146.989 29.5933 146.549 29.98C146.109 30.38 145.602 30.68 145.029 30.88C144.469 31.0933 143.869 31.2 143.229 31.2ZM143.009 26.94C142.382 26.94 141.795 26.82 141.249 26.58C140.715 26.34 140.242 26 139.829 25.56C139.429 25.12 139.109 24.6133 138.869 24.04C138.642 23.4533 138.529 22.82 138.529 22.14C138.529 21.4733 138.642 20.8533 138.869 20.28C139.109 19.7067 139.429 19.2 139.829 18.76C140.242 18.32 140.715 17.98 141.249 17.74C141.795 17.4867 142.375 17.36 142.989 17.36C143.589 17.36 144.109 17.48 144.549 17.72C145.002 17.9467 145.375 18.2733 145.669 18.7C145.962 19.1267 146.182 19.6333 146.329 20.22C146.489 20.8067 146.569 21.4533 146.569 22.16C146.569 23.1333 146.435 23.98 146.169 24.7C145.902 25.42 145.509 25.9733 144.989 26.36C144.469 26.7467 143.809 26.94 143.009 26.94ZM143.229 24.68C143.682 24.68 144.082 24.5733 144.429 24.36C144.789 24.1333 145.069 23.8267 145.269 23.44C145.482 23.0533 145.589 22.62 145.589 22.14C145.589 21.6467 145.482 21.2133 145.269 20.84C145.069 20.4533 144.789 20.1533 144.429 19.94C144.069 19.7267 143.662 19.62 143.209 19.62C142.755 19.62 142.349 19.7333 141.989 19.96C141.642 20.1733 141.369 20.4667 141.169 20.84C140.969 21.2133 140.869 21.6467 140.869 22.14C140.869 22.6333 140.969 23.0733 141.169 23.46C141.382 23.8333 141.662 24.1333 142.009 24.36C142.369 24.5733 142.775 24.68 143.229 24.68ZM151.281 27.2C150.921 27.2 150.654 27.14 150.481 27.02C150.321 26.9133 150.221 26.7667 150.181 26.58C150.141 26.3933 150.121 26.1867 150.121 25.96V18.54C150.121 18.3 150.141 18.0933 150.181 17.92C150.221 17.7333 150.321 17.5933 150.481 17.5C150.654 17.3933 150.927 17.34 151.301 17.34C151.661 17.34 151.921 17.3867 152.081 17.48C152.254 17.5733 152.361 17.6933 152.401 17.84C152.454 17.9733 152.481 18.1067 152.481 18.24L152.321 18.6C152.387 18.4933 152.481 18.3667 152.601 18.22C152.721 18.06 152.881 17.9067 153.081 17.76C153.281 17.6 153.521 17.4733 153.801 17.38C154.081 17.2733 154.414 17.22 154.801 17.22C154.961 17.22 155.127 17.24 155.301 17.28C155.487 17.3067 155.667 17.3533 155.841 17.42C156.027 17.4733 156.194 17.5467 156.341 17.64C156.487 17.7333 156.601 17.8467 156.681 17.98C156.761 18.1 156.801 18.24 156.801 18.4C156.801 18.8267 156.694 19.1867 156.481 19.48C156.267 19.7733 156.014 19.92 155.721 19.92C155.521 19.92 155.374 19.9 155.281 19.86C155.187 19.82 155.107 19.7733 155.041 19.72C154.987 19.6667 154.901 19.62 154.781 19.58C154.674 19.54 154.501 19.52 154.261 19.52C154.061 19.52 153.854 19.5533 153.641 19.62C153.441 19.6867 153.254 19.7867 153.081 19.92C152.907 20.0533 152.767 20.2267 152.661 20.44C152.554 20.64 152.501 20.8733 152.501 21.14V26C152.501 26.2267 152.481 26.4333 152.441 26.62C152.401 26.7933 152.294 26.9333 152.121 27.04C151.947 27.1467 151.667 27.2 151.281 27.2ZM162.611 27.32C161.971 27.32 161.344 27.2 160.731 26.96C160.131 26.7067 159.584 26.3533 159.091 25.9C158.611 25.4467 158.224 24.9133 157.931 24.3C157.651 23.6867 157.511 23.0133 157.511 22.28C157.511 21.5733 157.644 20.9133 157.911 20.3C158.177 19.6867 158.544 19.1467 159.011 18.68C159.477 18.2133 160.011 17.8533 160.611 17.6C161.224 17.3333 161.877 17.2 162.571 17.2C163.504 17.2 164.351 17.4267 165.111 17.88C165.871 18.32 166.477 18.92 166.931 19.68C167.384 20.44 167.611 21.3 167.611 22.26C167.611 23.02 167.471 23.7133 167.191 24.34C166.911 24.9533 166.531 25.4867 166.051 25.94C165.571 26.38 165.031 26.72 164.431 26.96C163.844 27.2 163.237 27.32 162.611 27.32ZM162.571 24.96C163.011 24.96 163.431 24.8533 163.831 24.64C164.244 24.4133 164.577 24.0933 164.831 23.68C165.097 23.2667 165.231 22.78 165.231 22.22C165.231 21.7 165.111 21.24 164.871 20.84C164.644 20.44 164.331 20.1267 163.931 19.9C163.531 19.6733 163.071 19.56 162.551 19.56C162.057 19.56 161.611 19.68 161.211 19.92C160.811 20.1467 160.491 20.4667 160.251 20.88C160.024 21.28 159.911 21.7333 159.911 22.24C159.911 22.8 160.037 23.2867 160.291 23.7C160.544 24.1 160.871 24.4133 161.271 24.64C161.684 24.8533 162.117 24.96 162.571 24.96ZM173.263 27.18C172.649 27.18 172.083 27.0733 171.563 26.86C171.056 26.6333 170.609 26.3133 170.223 25.9C169.836 25.4867 169.536 24.9933 169.323 24.42C169.109 23.8467 169.003 23.2133 169.003 22.52V18.54C169.003 18.3133 169.023 18.1133 169.063 17.94C169.103 17.7533 169.209 17.6067 169.383 17.5C169.556 17.3933 169.823 17.34 170.183 17.34C170.569 17.34 170.843 17.3933 171.003 17.5C171.176 17.6067 171.283 17.7533 171.323 17.94C171.363 18.1267 171.383 18.3333 171.383 18.56V22.52C171.383 23 171.463 23.4133 171.623 23.76C171.796 24.1067 172.043 24.38 172.363 24.58C172.683 24.7667 173.076 24.86 173.543 24.86C174.023 24.86 174.429 24.7667 174.763 24.58C175.109 24.38 175.376 24.1067 175.563 23.76C175.749 23.4 175.843 22.9867 175.843 22.52V18.52C175.843 18.2933 175.863 18.0933 175.903 17.92C175.943 17.7333 176.049 17.5933 176.223 17.5C176.396 17.3933 176.669 17.34 177.043 17.34C177.416 17.34 177.683 17.3933 177.843 17.5C178.003 17.6067 178.103 17.7533 178.143 17.94C178.196 18.1267 178.223 18.3267 178.223 18.54V26.04C178.223 26.24 178.196 26.4267 178.143 26.6C178.103 26.7733 177.996 26.9133 177.823 27.02C177.663 27.1267 177.396 27.18 177.023 27.18C176.756 27.18 176.543 27.1467 176.383 27.08C176.236 27.0267 176.123 26.9533 176.043 26.86C175.976 26.7533 175.929 26.6467 175.903 26.54C175.889 26.4333 175.883 26.3267 175.883 26.22L176.043 25.68C175.963 25.8 175.843 25.9467 175.683 26.12C175.523 26.28 175.323 26.4467 175.083 26.62C174.856 26.78 174.589 26.9133 174.283 27.02C173.976 27.1267 173.636 27.18 173.263 27.18ZM181.378 27.18C181.018 27.18 180.752 27.12 180.578 27C180.418 26.8933 180.318 26.7533 180.278 26.58C180.238 26.3933 180.218 26.1867 180.218 25.96V18.48C180.218 18.2667 180.238 18.0733 180.278 17.9C180.318 17.7267 180.425 17.5933 180.598 17.5C180.772 17.3933 181.038 17.34 181.398 17.34C181.718 17.34 181.958 17.38 182.118 17.46C182.278 17.54 182.385 17.64 182.438 17.76C182.492 17.88 182.518 18 182.518 18.12C182.532 18.24 182.545 18.3333 182.558 18.4L182.478 19.04C182.558 18.8267 182.692 18.62 182.878 18.42C183.065 18.22 183.292 18.04 183.558 17.88C183.825 17.7067 184.112 17.5733 184.418 17.48C184.738 17.3733 185.065 17.32 185.398 17.32C186.025 17.32 186.585 17.4333 187.078 17.66C187.572 17.8867 187.992 18.2067 188.338 18.62C188.698 19.0333 188.972 19.5267 189.158 20.1C189.345 20.66 189.438 21.2933 189.438 22V25.98C189.438 26.2067 189.412 26.4133 189.358 26.6C189.318 26.7733 189.218 26.9133 189.058 27.02C188.898 27.1267 188.625 27.18 188.238 27.18C187.865 27.18 187.592 27.12 187.418 27C187.245 26.8933 187.138 26.7533 187.098 26.58C187.058 26.3933 187.038 26.1867 187.038 25.96V21.98C187.038 21.5 186.952 21.0867 186.778 20.74C186.618 20.3933 186.378 20.1267 186.058 19.94C185.752 19.7533 185.358 19.66 184.878 19.66C184.412 19.66 184.005 19.76 183.658 19.96C183.312 20.1467 183.045 20.4133 182.858 20.76C182.672 21.1067 182.578 21.5133 182.578 21.98V25.98C182.578 26.2067 182.558 26.4133 182.518 26.6C182.478 26.7733 182.372 26.9133 182.198 27.02C182.038 27.1267 181.765 27.18 181.378 27.18ZM195.63 27.18C195.016 27.18 194.436 27.0533 193.89 26.8C193.343 26.5467 192.863 26.2 192.45 25.76C192.036 25.3067 191.71 24.78 191.47 24.18C191.23 23.5667 191.11 22.9133 191.11 22.22C191.11 21.5533 191.23 20.9267 191.47 20.34C191.71 19.74 192.036 19.22 192.45 18.78C192.876 18.3267 193.363 17.9733 193.91 17.72C194.456 17.4667 195.03 17.34 195.63 17.34C196.27 17.34 196.843 17.4667 197.35 17.72C197.856 17.9733 198.283 18.3267 198.63 18.78C198.99 19.22 199.263 19.74 199.45 20.34C199.636 20.9267 199.736 21.56 199.75 22.24C199.75 22.92 199.656 23.56 199.47 24.16C199.296 24.7467 199.03 25.2667 198.67 25.72C198.323 26.1733 197.89 26.5333 197.37 26.8C196.863 27.0533 196.283 27.18 195.63 27.18ZM195.95 24.84C196.416 24.84 196.83 24.7333 197.19 24.52C197.563 24.2933 197.856 23.9867 198.07 23.6C198.296 23.2133 198.41 22.7733 198.41 22.28C198.41 21.7733 198.296 21.3267 198.07 20.94C197.856 20.5533 197.563 20.2467 197.19 20.02C196.83 19.7933 196.416 19.68 195.95 19.68C195.483 19.68 195.063 19.7933 194.69 20.02C194.316 20.2333 194.016 20.54 193.79 20.94C193.576 21.3267 193.47 21.7733 193.47 22.28C193.47 22.7733 193.576 23.2133 193.79 23.6C194.016 23.9867 194.316 24.2933 194.69 24.52C195.076 24.7333 195.496 24.84 195.95 24.84ZM199.65 27.18C199.276 27.18 199.003 27.12 198.83 27C198.656 26.8667 198.543 26.66 198.49 26.38V14.06C198.49 13.8333 198.503 13.6333 198.53 13.46C198.57 13.2733 198.67 13.1267 198.83 13.02C199.003 12.9 199.27 12.84 199.63 12.84C200.016 12.84 200.29 12.8933 200.45 13C200.61 13.1067 200.71 13.2533 200.75 13.44C200.803 13.6133 200.83 13.8133 200.83 14.04V25.96C200.83 26.1867 200.81 26.3933 200.77 26.58C200.73 26.7667 200.623 26.9133 200.45 27.02C200.29 27.1267 200.023 27.18 199.65 27.18Z" fill="#1F1F1F"/>
<path d="M240 27C240 27.5304 239.789 28.0391 239.414 28.4142C239.039 28.7893 238.53 29 238 29H220C219.47 29 218.961 28.7893 218.586 28.4142C218.211 28.0391 218 27.5304 218 27V16C218 15.4696 218.211 14.9609 218.586 14.5858C218.961 14.2107 219.47 14 220 14H224L226 11H232L234 14H238C238.53 14 239.039 14.2107 239.414 14.5858C239.789 14.9609 240 15.4696 240 16V27Z" stroke="black" stroke-width="2" stroke-linecap="round" stroke-linejoin="round"/>
<path d="M229 25C231.209 25 233 23.2091 233 21C233 18.7909 231.209 17 229 17C226.791 17 225 18.7909 225 21C225 23.2091 226.791 25 229 25Z" stroke="black" stroke-width="2" stroke-linecap="round" stroke-linejoin="round"/>
</svg>
