<svg width="230" height="60" viewBox="0 0 230 60" fill="none" xmlns="http://www.w3.org/2000/svg">
<rect width="230" height="60" rx="30" fill="#F2B950"/>
<path d="M21.1495 42.288C20.4028 42.288 19.8588 42.1707 19.5175 41.936C19.1975 41.7013 18.9842 41.4027 18.8775 41.04C18.7708 40.656 18.7175 40.2507 18.7175 39.824V22.32C18.7175 21.9147 18.7602 21.5307 18.8455 21.168C18.9308 20.784 19.1442 20.4747 19.4855 20.24C19.8268 20.0053 20.3922 19.8987 21.1815 19.92H26.9415C28.4775 19.92 29.9068 20.1973 31.2295 20.752C32.5522 21.3067 33.7148 22.0853 34.7175 23.088C35.7202 24.0907 36.4988 25.264 37.0535 26.608C37.6082 27.952 37.8855 29.4133 37.8855 30.992C37.8855 32.592 37.6082 34.0853 37.0535 35.472C36.4988 36.8373 35.7202 38.032 34.7175 39.056C33.7148 40.0587 32.5415 40.848 31.1975 41.424C29.8748 42 28.4242 42.288 26.8455 42.288H21.1495ZM23.5815 37.392H26.9415C28.0935 37.392 29.1282 37.1253 30.0455 36.592C30.9628 36.0373 31.6882 35.2907 32.2215 34.352C32.7548 33.4133 33.0215 32.336 33.0215 31.12C33.0215 29.904 32.7548 28.816 32.2215 27.856C31.6882 26.896 30.9628 26.1493 30.0455 25.616C29.1282 25.0613 28.0828 24.784 26.9095 24.784H23.5815V37.392ZM47.7733 42.544C46.7706 42.544 45.7679 42.352 44.7653 41.968C43.7839 41.5627 42.8879 40.9973 42.0773 40.272C41.2666 39.5467 40.6266 38.6827 40.1573 37.68C39.6879 36.656 39.4533 35.5253 39.4533 34.288C39.4533 33.136 39.6666 32.0693 40.0933 31.088C40.5199 30.0853 41.1173 29.2 41.8853 28.432C42.6533 27.664 43.5279 27.0667 44.5093 26.64C45.5119 26.192 46.5786 25.968 47.7093 25.968C49.2453 25.968 50.6319 26.3413 51.8693 27.088C53.1279 27.8133 54.1306 28.8053 54.8773 30.064C55.6239 31.3227 55.9973 32.72 55.9973 34.256C55.9973 35.5573 55.7519 36.72 55.2613 37.744C54.7919 38.7467 54.1519 39.6107 53.3413 40.336C52.5519 41.0613 51.6666 41.616 50.6853 42C49.7253 42.3627 48.7546 42.544 47.7733 42.544ZM47.7093 37.712C48.2213 37.712 48.7439 37.584 49.2773 37.328C49.8106 37.072 50.2586 36.688 50.6213 36.176C50.9839 35.664 51.1653 35.0133 51.1653 34.224C51.1653 33.5413 51.0159 32.944 50.7173 32.432C50.4186 31.92 50.0026 31.5253 49.4693 31.248C48.9573 30.9493 48.3599 30.8 47.6773 30.8C47.0373 30.8 46.4613 30.9493 45.9493 31.248C45.4586 31.5467 45.0533 31.9627 44.7333 32.496C44.4346 33.008 44.2853 33.5947 44.2853 34.256C44.2853 35.024 44.4559 35.6747 44.7973 36.208C45.1599 36.72 45.6079 37.104 46.1413 37.36C46.6746 37.5947 47.1973 37.712 47.7093 37.712ZM63.5193 42.32C62.9433 42.32 62.4953 42.2133 62.1753 42C61.8766 41.7867 61.6526 41.5307 61.5033 41.232C61.3753 40.9333 61.2686 40.6773 61.1833 40.464L56.6713 29.296C56.5219 28.784 56.4473 28.3573 56.4473 28.016C56.4686 27.6533 56.5966 27.3547 56.8313 27.12C57.0873 26.864 57.4819 26.64 58.0153 26.448C58.8259 26.1067 59.4873 26.0107 59.9993 26.16C60.5113 26.3093 60.8953 26.7467 61.1513 27.472L63.5193 33.904L65.6313 27.984C65.7166 27.7707 65.8339 27.536 65.9833 27.28C66.1326 27.0027 66.3566 26.7573 66.6553 26.544C66.9753 26.3307 67.4019 26.224 67.9353 26.224C68.5113 26.224 68.9593 26.3307 69.2793 26.544C69.5993 26.7573 69.8339 27.0027 69.9833 27.28C70.1539 27.5573 70.2713 27.792 70.3353 27.984L72.4473 33.904L74.6873 27.856C74.9859 27.0667 75.3806 26.5333 75.8713 26.256C76.3619 25.9787 77.0126 26.0107 77.8233 26.352C78.5699 26.672 79.0819 27.0667 79.3593 27.536C79.6366 28.0053 79.6046 28.6027 79.2633 29.328L74.7513 40.464C74.6659 40.6987 74.5486 40.9653 74.3993 41.264C74.2499 41.5627 74.0259 41.808 73.7273 42C73.4286 42.2133 73.0126 42.32 72.4792 42.32C71.9246 42.32 71.4979 42.224 71.1993 42.032C70.9006 41.8613 70.6659 41.6267 70.4953 41.328C70.3459 41.0293 70.2179 40.7307 70.1113 40.432L67.9673 34.544L65.8553 40.432C65.7059 40.816 65.5673 41.1573 65.4392 41.456C65.3113 41.7333 65.0979 41.9467 64.7993 42.096C64.5219 42.2453 64.0953 42.32 63.5193 42.32ZM83.6183 42.256C82.8289 42.256 82.2636 42.1493 81.9223 41.936C81.6023 41.7013 81.3996 41.4027 81.3143 41.04C81.2503 40.656 81.2183 40.2613 81.2183 39.856V28.592C81.2183 28.1867 81.2609 27.8133 81.3463 27.472C81.4316 27.1093 81.6343 26.8213 81.9543 26.608C82.2956 26.3947 82.8609 26.288 83.6503 26.288C84.3329 26.288 84.8343 26.384 85.1543 26.576C85.4743 26.7467 85.6769 26.96 85.7623 27.216C85.8689 27.472 85.9223 27.7173 85.9223 27.952C85.9223 28.1653 85.9436 28.3147 85.9863 28.4L85.7943 29.008C85.8369 28.688 85.9969 28.368 86.2743 28.048C86.5729 27.7067 86.9356 27.408 87.3623 27.152C87.8103 26.8747 88.2796 26.6613 88.7703 26.512C89.2823 26.3627 89.7836 26.288 90.2743 26.288C91.2983 26.288 92.2049 26.48 92.9943 26.864C93.8049 27.2267 94.4876 27.76 95.0423 28.464C95.5969 29.168 96.0129 30 96.2903 30.96C96.5889 31.8987 96.7383 32.9333 96.7383 34.064V39.888C96.7383 40.2933 96.6956 40.688 96.6103 41.072C96.5463 41.4347 96.3436 41.7227 96.0023 41.936C95.6823 42.1493 95.1276 42.256 94.3383 42.256C93.5276 42.256 92.9516 42.1493 92.6103 41.936C92.2903 41.7013 92.0876 41.4027 92.0023 41.04C91.9169 40.656 91.8743 40.2613 91.8743 39.856V34.064C91.8743 33.424 91.7676 32.88 91.5543 32.432C91.3409 31.984 91.0209 31.6427 90.5943 31.408C90.1676 31.152 89.6449 31.024 89.0263 31.024C88.4076 31.024 87.8743 31.152 87.4263 31.408C86.9783 31.664 86.6263 32.016 86.3703 32.464C86.1356 32.912 86.0183 33.4453 86.0183 34.064V39.888C86.0183 40.2933 85.9756 40.688 85.8903 41.072C85.8263 41.4347 85.6236 41.7227 85.2823 41.936C84.9623 42.1493 84.4076 42.256 83.6183 42.256ZM105.394 42.288C104.519 42.288 103.74 42.2347 103.058 42.128C102.396 42.0427 101.82 41.872 101.33 41.616C100.86 41.36 100.476 41.008 100.178 40.56C99.8788 40.112 99.6548 39.536 99.5055 38.832C99.3775 38.1067 99.3135 37.2213 99.3135 36.176V21.392C99.3135 20.9653 99.3455 20.5707 99.4095 20.208C99.4948 19.8453 99.7082 19.5467 100.049 19.312C100.391 19.0773 100.946 18.96 101.714 18.96C102.482 18.96 103.026 19.0773 103.346 19.312C103.687 19.5467 103.9 19.8453 103.986 20.208C104.071 20.5707 104.114 20.9653 104.114 21.392V35.952C104.114 36.2933 104.124 36.5813 104.146 36.816C104.188 37.0293 104.252 37.2 104.338 37.328C104.444 37.456 104.583 37.5413 104.754 37.584C104.924 37.6267 105.148 37.648 105.426 37.648C105.682 37.648 105.938 37.68 106.194 37.744C106.471 37.808 106.706 38 106.898 38.32C107.09 38.64 107.186 39.1733 107.186 39.92C107.186 40.688 107.09 41.2427 106.898 41.584C106.706 41.9253 106.471 42.128 106.194 42.192C105.938 42.256 105.671 42.288 105.394 42.288ZM116.555 42.544C115.552 42.544 114.549 42.352 113.547 41.968C112.565 41.5627 111.669 40.9973 110.859 40.272C110.048 39.5467 109.408 38.6827 108.939 37.68C108.469 36.656 108.235 35.5253 108.235 34.288C108.235 33.136 108.448 32.0693 108.875 31.088C109.301 30.0853 109.899 29.2 110.667 28.432C111.435 27.664 112.309 27.0667 113.291 26.64C114.293 26.192 115.36 25.968 116.491 25.968C118.027 25.968 119.413 26.3413 120.651 27.088C121.909 27.8133 122.912 28.8053 123.659 30.064C124.405 31.3227 124.779 32.72 124.779 34.256C124.779 35.5573 124.533 36.72 124.043 37.744C123.573 38.7467 122.933 39.6107 122.123 40.336C121.333 41.0613 120.448 41.616 119.467 42C118.507 42.3627 117.536 42.544 116.555 42.544ZM116.491 37.712C117.003 37.712 117.525 37.584 118.059 37.328C118.592 37.072 119.04 36.688 119.403 36.176C119.765 35.664 119.947 35.0133 119.947 34.224C119.947 33.5413 119.797 32.944 119.499 32.432C119.2 31.92 118.784 31.5253 118.251 31.248C117.739 30.9493 117.141 30.8 116.459 30.8C115.819 30.8 115.243 30.9493 114.731 31.248C114.24 31.5467 113.835 31.9627 113.515 32.496C113.216 33.008 113.067 33.5947 113.067 34.256C113.067 35.024 113.237 35.6747 113.579 36.208C113.941 36.72 114.389 37.104 114.923 37.36C115.456 37.5947 115.979 37.712 116.491 37.712ZM139.806 42.256C139.016 42.256 138.43 42.1173 138.046 41.84C137.683 41.5627 137.502 41.2213 137.502 40.816L137.822 40.272C137.694 40.4853 137.448 40.752 137.086 41.072C136.723 41.3707 136.254 41.648 135.678 41.904C135.102 42.1387 134.387 42.256 133.534 42.256C132.552 42.256 131.614 42.0427 130.718 41.616C129.843 41.1893 129.064 40.6027 128.382 39.856C127.699 39.088 127.155 38.224 126.75 37.264C126.366 36.304 126.174 35.2907 126.174 34.224C126.174 33.1787 126.366 32.1867 126.75 31.248C127.155 30.288 127.699 29.4453 128.382 28.72C129.086 27.9733 129.875 27.3867 130.75 26.96C131.624 26.5333 132.552 26.32 133.534 26.32C134.323 26.32 134.995 26.4373 135.55 26.672C136.104 26.8853 136.563 27.1413 136.926 27.44C137.31 27.7387 137.598 28.0267 137.79 28.304L137.534 27.856C137.512 27.344 137.683 26.96 138.046 26.704C138.43 26.4267 139.027 26.288 139.838 26.288C140.606 26.288 141.15 26.4053 141.47 26.64C141.811 26.8747 142.014 27.184 142.078 27.568C142.163 27.952 142.206 28.3573 142.206 28.784V39.824C142.206 40.2293 142.163 40.624 142.078 41.008C142.014 41.392 141.811 41.7013 141.47 41.936C141.15 42.1493 140.595 42.256 139.806 42.256ZM134.238 37.488C134.792 37.488 135.294 37.3493 135.742 37.072C136.211 36.7733 136.574 36.3787 136.83 35.888C137.107 35.3973 137.246 34.8533 137.246 34.256C137.246 33.6373 137.107 33.0933 136.83 32.624C136.552 32.1333 136.179 31.7493 135.71 31.472C135.24 31.1733 134.728 31.024 134.174 31.024C133.555 31.024 133 31.1733 132.51 31.472C132.04 31.7707 131.656 32.1653 131.358 32.656C131.08 33.1467 130.942 33.7013 130.942 34.32C130.942 34.896 131.08 35.4293 131.358 35.92C131.656 36.3893 132.051 36.7733 132.542 37.072C133.054 37.3493 133.619 37.488 134.238 37.488ZM151.629 42.256C150.669 42.256 149.741 42.0533 148.845 41.648C147.97 41.2213 147.191 40.6347 146.509 39.888C145.826 39.1413 145.282 38.288 144.877 37.328C144.493 36.3467 144.301 35.312 144.301 34.224C144.301 33.1787 144.493 32.1867 144.877 31.248C145.282 30.288 145.826 29.4453 146.509 28.72C147.213 27.9733 148.002 27.3867 148.877 26.96C149.751 26.5333 150.669 26.32 151.629 26.32C152.653 26.32 153.549 26.5333 154.317 26.96C155.106 27.3653 155.767 27.9307 156.301 28.656C156.834 29.3813 157.229 30.224 157.485 31.184C157.762 32.144 157.911 33.1467 157.933 34.192C157.954 35.28 157.826 36.304 157.549 37.264C157.293 38.224 156.898 39.0773 156.365 39.824C155.831 40.5707 155.17 41.168 154.381 41.616C153.613 42.0427 152.695 42.256 151.629 42.256ZM152.269 37.52C152.845 37.52 153.357 37.3813 153.805 37.104C154.274 36.8053 154.647 36.4107 154.925 35.92C155.223 35.4293 155.373 34.8853 155.373 34.288C155.373 33.6693 155.234 33.1253 154.957 32.656C154.679 32.1653 154.306 31.7813 153.837 31.504C153.367 31.2267 152.834 31.088 152.237 31.088C151.661 31.088 151.127 31.2267 150.637 31.504C150.167 31.7813 149.794 32.1653 149.517 32.656C149.261 33.1253 149.133 33.6693 149.133 34.288C149.133 34.8853 149.271 35.4293 149.549 35.92C149.826 36.4107 150.21 36.8053 150.701 37.104C151.191 37.3813 151.714 37.52 152.269 37.52ZM157.869 42.288C157.143 42.288 156.599 42.1707 156.237 41.936C155.874 41.7013 155.639 41.3387 155.533 40.848V21.456C155.533 21.0507 155.554 20.6667 155.597 20.304C155.661 19.92 155.853 19.6107 156.173 19.376C156.493 19.1413 157.047 19.024 157.837 19.024C158.626 19.024 159.181 19.1413 159.501 19.376C159.842 19.5893 160.045 19.8773 160.109 20.24C160.194 20.6027 160.237 20.9973 160.237 21.424V39.856C160.237 40.2613 160.194 40.656 160.109 41.04C160.045 41.4027 159.842 41.7013 159.501 41.936C159.181 42.1707 158.637 42.288 157.869 42.288Z" fill="black"/>
<path d="M207 35V41.6667C207 42.5507 206.649 43.3986 206.024 44.0237C205.399 44.6488 204.551 45 203.667 45H180.333C179.449 45 178.601 44.6488 177.976 44.0237C177.351 43.3986 177 42.5507 177 41.6667V35" stroke="black" stroke-width="3" stroke-linecap="round" stroke-linejoin="round"/>
<path d="M183.667 26.6666L192 35L200.333 26.6666" stroke="black" stroke-width="3" stroke-linecap="round" stroke-linejoin="round"/>
<path d="M192 35V15" stroke="black" stroke-width="3" stroke-linecap="round" stroke-linejoin="round"/>
</svg>
