<svg width="64" height="64" viewBox="0 0 64 64" fill="none" xmlns="http://www.w3.org/2000/svg">
<g filter="url(#filter0_d_100_156)">
<rect x="2" y="2" width="60" height="60" rx="30" fill="#F2B950"/>
<path d="M32 48.6666C41.2048 48.6666 48.6667 41.2047 48.6667 32C48.6667 22.7952 41.2048 15.3333 32 15.3333C22.7953 15.3333 15.3333 22.7952 15.3333 32C15.3333 41.2047 22.7953 48.6666 32 48.6666Z" stroke="black" stroke-width="3" stroke-linecap="round" stroke-linejoin="round"/>
<path d="M27.15 27C27.5418 25.8861 28.3152 24.9468 29.3333 24.3485C30.3513 23.7502 31.5482 23.5315 32.712 23.7312C33.8758 23.9308 34.9314 24.5358 35.6918 25.4392C36.4522 26.3425 36.8684 27.4858 36.8667 28.6666C36.8667 32 31.8667 33.6666 31.8667 33.6666" stroke="black" stroke-width="3" stroke-linecap="round" stroke-linejoin="round"/>
<path d="M32 40.3333H32.0167" stroke="black" stroke-width="3" stroke-linecap="round" stroke-linejoin="round"/>
</g>
<defs>
<filter id="filter0_d_100_156" x="0" y="0" width="64" height="64" filterUnits="userSpaceOnUse" color-interpolation-filters="sRGB">
<feFlood flood-opacity="0" result="BackgroundImageFix"/>
<feColorMatrix in="SourceAlpha" type="matrix" values="0 0 0 0 0 0 0 0 0 0 0 0 0 0 0 0 0 0 127 0" result="hardAlpha"/>
<feOffset/>
<feGaussianBlur stdDeviation="1"/>
<feComposite in2="hardAlpha" operator="out"/>
<feColorMatrix type="matrix" values="0 0 0 0 0 0 0 0 0 0 0 0 0 0 0 0 0 0 0.25 0"/>
<feBlend mode="normal" in2="BackgroundImageFix" result="effect1_dropShadow_100_156"/>
<feBlend mode="normal" in="SourceGraphic" in2="effect1_dropShadow_100_156" result="shape"/>
</filter>
</defs>
</svg>
