<svg width="144" height="64" viewBox="0 0 144 64" fill="none" xmlns="http://www.w3.org/2000/svg">
<g filter="url(#filter0_d_100_161)">
<rect x="2" y="2" width="140" height="60" rx="30" fill="#F27E9D"/>
<path d="M23.904 43.288C23.1147 43.288 22.5493 43.1707 22.208 42.936C21.888 42.7013 21.6853 42.392 21.6 42.008C21.5147 41.624 21.472 41.2293 21.472 40.824V23.352C21.472 22.9467 21.5147 22.5627 21.6 22.2C21.6853 21.816 21.8987 21.5067 22.24 21.272C22.5813 21.0373 23.1467 20.92 23.936 20.92H30.496C31.392 20.92 32.288 21.08 33.184 21.4C34.1013 21.72 34.944 22.2213 35.712 22.904C36.5013 23.5653 37.1307 24.3867 37.6 25.368C38.0907 26.3493 38.336 27.5013 38.336 28.824C38.336 30.1253 38.0907 31.2667 37.6 32.248C37.1307 33.2293 36.5013 34.0507 35.712 34.712C34.944 35.352 34.1013 35.8427 33.184 36.184C32.2667 36.504 31.36 36.664 30.464 36.664H26.368V40.856C26.368 41.2613 26.3253 41.656 26.24 42.04C26.1547 42.4027 25.9413 42.7013 25.6 42.936C25.2587 43.1707 24.6933 43.288 23.904 43.288ZM26.368 31.8H30.496C30.9653 31.8 31.424 31.704 31.872 31.512C32.3413 31.2987 32.7253 30.968 33.024 30.52C33.344 30.072 33.504 29.496 33.504 28.792C33.504 28.1947 33.376 27.672 33.12 27.224C32.864 26.776 32.5013 26.424 32.032 26.168C31.584 25.912 31.0613 25.784 30.464 25.784H26.368V31.8ZM46.5498 43.288C45.6751 43.288 44.8964 43.2347 44.2138 43.128C43.5524 43.0427 42.9764 42.872 42.4858 42.616C42.0164 42.36 41.6324 42.008 41.3338 41.56C41.0351 41.112 40.8111 40.536 40.6618 39.832C40.5338 39.1067 40.4698 38.2213 40.4698 37.176V22.392C40.4698 21.9653 40.5018 21.5707 40.5658 21.208C40.6511 20.8453 40.8644 20.5467 41.2057 20.312C41.5471 20.0773 42.1018 19.96 42.8698 19.96C43.6378 19.96 44.1818 20.0773 44.5018 20.312C44.8431 20.5467 45.0564 20.8453 45.1418 21.208C45.2271 21.5707 45.2698 21.9653 45.2698 22.392V36.952C45.2698 37.2933 45.2804 37.5813 45.3018 37.816C45.3444 38.0293 45.4084 38.2 45.4938 38.328C45.6004 38.456 45.7391 38.5413 45.9098 38.584C46.0804 38.6267 46.3044 38.648 46.5818 38.648C46.8378 38.648 47.0938 38.68 47.3498 38.744C47.6271 38.808 47.8618 39 48.0538 39.32C48.2458 39.64 48.3418 40.1733 48.3418 40.92C48.3418 41.688 48.2458 42.2427 48.0538 42.584C47.8618 42.9253 47.6271 43.128 47.3498 43.192C47.0938 43.256 46.8271 43.288 46.5498 43.288ZM63.0868 43.256C62.2974 43.256 61.7108 43.1173 61.3268 42.84C60.9641 42.5627 60.7828 42.2213 60.7828 41.816L61.1028 41.272C60.9748 41.4853 60.7294 41.752 60.3668 42.072C60.0041 42.3707 59.5348 42.648 58.9588 42.904C58.3828 43.1387 57.6681 43.256 56.8148 43.256C55.8334 43.256 54.8948 43.0427 53.9988 42.616C53.1241 42.1893 52.3454 41.6027 51.6628 40.856C50.9801 40.088 50.4361 39.224 50.0308 38.264C49.6468 37.304 49.4548 36.2907 49.4548 35.224C49.4548 34.1787 49.6468 33.1867 50.0308 32.248C50.4361 31.288 50.9801 30.4453 51.6628 29.72C52.3668 28.9733 53.1561 28.3867 54.0308 27.96C54.9054 27.5333 55.8334 27.32 56.8148 27.32C57.6041 27.32 58.2761 27.4373 58.8308 27.672C59.3854 27.8853 59.8441 28.1413 60.2068 28.44C60.5908 28.7387 60.8788 29.0267 61.0708 29.304L60.8148 28.856C60.7934 28.344 60.9641 27.96 61.3268 27.704C61.7108 27.4267 62.3081 27.288 63.1188 27.288C63.8868 27.288 64.4308 27.4053 64.7508 27.64C65.0921 27.8747 65.2948 28.184 65.3588 28.568C65.4441 28.952 65.4868 29.3573 65.4868 29.784V40.824C65.4868 41.2293 65.4441 41.624 65.3588 42.008C65.2948 42.392 65.0921 42.7013 64.7508 42.936C64.4308 43.1493 63.8761 43.256 63.0868 43.256ZM57.5188 38.488C58.0734 38.488 58.5748 38.3493 59.0228 38.072C59.4921 37.7733 59.8548 37.3787 60.1108 36.888C60.3881 36.3973 60.5268 35.8533 60.5268 35.256C60.5268 34.6373 60.3881 34.0933 60.1108 33.624C59.8334 33.1333 59.4601 32.7493 58.9908 32.472C58.5214 32.1733 58.0094 32.024 57.4548 32.024C56.8361 32.024 56.2814 32.1733 55.7908 32.472C55.3214 32.7707 54.9374 33.1653 54.6388 33.656C54.3614 34.1467 54.2228 34.7013 54.2228 35.32C54.2228 35.896 54.3614 36.4293 54.6388 36.92C54.9374 37.3893 55.3321 37.7733 55.8228 38.072C56.3348 38.3493 56.9001 38.488 57.5188 38.488ZM71.981 49.752C71.1063 49.368 70.5943 48.9413 70.445 48.472C70.317 48.0027 70.4343 47.3733 70.797 46.584L78.829 28.632C79.1917 27.8 79.5863 27.3093 80.013 27.16C80.461 26.9893 81.1223 27.0747 81.997 27.416C82.8503 27.8213 83.341 28.248 83.469 28.696C83.6183 29.144 83.5223 29.7413 83.181 30.488L75.117 48.568C74.7543 49.4 74.3597 49.9013 73.933 50.072C73.5063 50.2427 72.8557 50.136 71.981 49.752ZM74.765 42.296L67.245 30.84C66.7757 30.136 66.5837 29.5493 66.669 29.08C66.7757 28.6107 67.2023 28.1307 67.949 27.64C68.781 27.128 69.421 26.936 69.869 27.064C70.3383 27.1707 70.8077 27.5867 71.277 28.312L76.813 36.792L74.765 42.296Z" fill="black"/>
<path d="M102.333 17L125.667 32L102.333 47V17Z" stroke="black" stroke-width="4" stroke-linecap="round" stroke-linejoin="round"/>
</g>
<defs>
<filter id="filter0_d_100_161" x="0" y="0" width="144" height="64" filterUnits="userSpaceOnUse" color-interpolation-filters="sRGB">
<feFlood flood-opacity="0" result="BackgroundImageFix"/>
<feColorMatrix in="SourceAlpha" type="matrix" values="0 0 0 0 0 0 0 0 0 0 0 0 0 0 0 0 0 0 127 0" result="hardAlpha"/>
<feOffset/>
<feGaussianBlur stdDeviation="1"/>
<feComposite in2="hardAlpha" operator="out"/>
<feColorMatrix type="matrix" values="0 0 0 0 0 0 0 0 0 0 0 0 0 0 0 0 0 0 0.25 0"/>
<feBlend mode="normal" in2="BackgroundImageFix" result="effect1_dropShadow_100_161"/>
<feBlend mode="normal" in="SourceGraphic" in2="effect1_dropShadow_100_161" result="shape"/>
</filter>
</defs>
</svg>
