<svg width="60" height="60" viewBox="0 0 60 60" fill="none" xmlns="http://www.w3.org/2000/svg">
<rect width="60" height="60" rx="30" fill="#F27E9D"/>
<path d="M48.3333 16.6666V26.6666H38.3333" stroke="black" stroke-width="3" stroke-linecap="round" stroke-linejoin="round"/>
<path d="M44.15 34.9999C43.0666 38.0665 41.0159 40.6978 38.3069 42.4975C35.5979 44.2971 32.3774 45.1675 29.1307 44.9776C25.884 44.7877 22.7869 43.5476 20.3063 41.4444C17.8256 39.3412 16.0957 36.4886 15.3773 33.3167C14.6588 30.1448 14.9908 26.8253 16.3231 23.8584C17.6554 20.8915 19.9159 18.438 22.7639 16.8677C25.6119 15.2973 28.8932 14.6951 32.1133 15.1518C35.3333 15.6086 38.3177 17.0995 40.6167 19.3999L48.3333 26.6666" stroke="black" stroke-width="3" stroke-linecap="round" stroke-linejoin="round"/>
</svg>
